<svg width="20" height="22" viewBox="0 0 20 22" fill="none" xmlns="http://www.w3.org/2000/svg">
<path d="M12.454 8.93676C11.622 9.47409 10.7207 9.74276 9.75 9.74276C9.10867 9.74276 8.489 9.61709 7.891 9.36576C7.293 9.11443 6.76433 8.76343 6.305 8.31276C5.84567 7.86209 5.49467 7.33776 5.252 6.73976C5.00933 6.14176 4.888 5.52209 4.888 4.88076C4.888 3.87542 5.161 2.96543 5.707 2.15076C6.253 1.33609 6.97233 0.742425 7.865 0.369759C8.75767 -0.00290802 9.70667 -0.0939069 10.712 0.0967598C11.648 0.270093 12.4713 0.70776 13.182 1.40976C13.8927 2.11176 14.339 2.94376 14.521 3.90576C14.703 4.86776 14.612 5.80809 14.248 6.72676C13.884 7.64543 13.286 8.38209 12.454 8.93676ZM11.258 2.61876C10.8073 2.32409 10.3047 2.17676 9.75 2.17676C9.022 2.17676 8.38067 2.43676 7.826 2.95676C7.306 3.51143 7.046 4.15276 7.046 4.88076C7.046 5.43542 7.19767 5.93809 7.501 6.38876C7.80433 6.83943 8.20733 7.16876 8.71 7.37676C9.21267 7.58476 9.73267 7.63676 10.27 7.53276C10.8073 7.42876 11.271 7.18176 11.661 6.79176C12.051 6.40176 12.298 5.93809 12.402 5.40076C12.506 4.86343 12.454 4.34343 12.246 3.84076C12.038 3.33809 11.7087 2.93076 11.258 2.61876ZM2.86 13.6948C3.76133 12.7761 4.81 12.0698 6.006 11.5758C7.202 11.0818 8.45 10.8348 9.75 10.8348C11.05 10.8348 12.298 11.0818 13.494 11.5758C14.69 12.0698 15.743 12.7718 16.653 13.6818C17.563 14.5918 18.265 15.6448 18.759 16.8408C19.253 18.0368 19.5 19.2848 19.5 20.5848C19.5 20.8968 19.3873 21.1568 19.162 21.3648C18.9367 21.5728 18.6853 21.6768 18.408 21.6768H13C12.7053 21.6768 12.4497 21.5684 12.233 21.3518C12.0163 21.1351 11.908 20.8794 11.908 20.5848C11.908 20.2901 12.0163 20.0344 12.233 19.8178C12.4497 19.6011 12.7053 19.4928 13 19.4928H17.264C17.1253 18.5914 16.8393 17.7378 16.406 16.9318C15.9727 16.1258 15.4093 15.4281 14.716 14.8388C14.0227 14.2494 13.2513 13.7944 12.402 13.4738C11.5527 13.1531 10.6687 12.9928 9.75 12.9928C8.83133 12.9928 7.94733 13.1531 7.098 13.4738C6.24867 13.7944 5.47733 14.2494 4.784 14.8388C4.09067 15.4281 3.52733 16.1258 3.094 16.9318C2.66067 17.7378 2.37467 18.5914 2.236 19.4928H6.5C6.77733 19.4928 7.03733 19.5968 7.28 19.8048C7.488 20.0474 7.592 20.3074 7.592 20.5848C7.592 20.8621 7.488 21.1221 7.28 21.3648C7.03733 21.5728 6.77733 21.6768 6.5 21.6768H1.092C0.814667 21.6768 0.563333 21.5728 0.338 21.3648C0.112667 21.1568 0 20.8968 0 20.5848C0 19.2848 0.247 18.0411 0.741 16.8538C1.235 15.6664 1.94133 14.6134 2.86 13.6948Z" fill="#030712"/>
</svg>
