<svg width="13" height="6" viewBox="0 0 13 6" fill="none" xmlns="http://www.w3.org/2000/svg">
<path d="M12.544 2.576C12.544 2.548 12.5323 2.52233 12.509 2.499C12.4857 2.47566 12.46 2.464 12.432 2.464L10.094 0.125998C10.0007 0.0419982 9.89333 -1.7602e-06 9.772 -1.7602e-06C9.65067 -1.7602e-06 9.54333 0.0419982 9.45 0.125998C9.35667 0.209998 9.31233 0.317332 9.317 0.447998C9.32167 0.578665 9.366 0.685998 9.45 0.769998L11.032 2.352H0.462C0.340667 2.352 0.233333 2.394 0.14 2.478C0.0466667 2.562 0 2.67633 0 2.821C0 2.96566 0.042 3.07767 0.126 3.157C0.21 3.23633 0.322 3.276 0.462 3.276H11.088L9.506 4.858C9.422 4.942 9.38 5.047 9.38 5.173C9.38 5.299 9.422 5.40867 9.506 5.502C9.534 5.53 9.576 5.55567 9.632 5.579C9.688 5.60233 9.744 5.614 9.8 5.614C9.856 5.614 9.912 5.60233 9.968 5.579C10.024 5.55567 10.066 5.53 10.094 5.502L12.432 3.164C12.4507 3.14533 12.4693 3.122 12.488 3.094C12.5067 3.066 12.5253 3.052 12.544 3.052C12.572 2.93066 12.586 2.83733 12.586 2.772C12.586 2.70666 12.572 2.64133 12.544 2.576Z" fill="#212529"/>
</svg>
