<svg width="16" height="16" viewBox="0 0 16 16" fill="none" xmlns="http://www.w3.org/2000/svg">
<path d="M5.754 0.958002H2.01C1.626 0.958002 1.305 1.078 1.047 1.318C0.789004 1.558 0.660004 1.864 0.660004 2.236V5.98C0.660004 6.352 0.792004 6.67 1.056 6.934C1.32 7.198 1.638 7.33 2.01 7.33H5.754C6.138 7.33 6.459 7.198 6.717 6.934C6.975 6.67 7.104 6.352 7.104 5.98V2.236C7.104 1.864 6.975 1.558 6.717 1.318C6.459 1.078 6.138 0.958002 5.754 0.958002ZM5.898 5.98C5.898 6.016 5.883 6.049 5.853 6.079C5.823 6.109 5.79 6.124 5.754 6.124H2.01C1.974 6.16 1.938 6.157 1.902 6.115C1.866 6.073 1.848 6.028 1.848 5.98V2.236C1.848 2.188 1.866 2.149 1.902 2.119C1.938 2.089 1.974 2.074 2.01 2.074H5.754C5.79 2.074 5.823 2.089 5.853 2.119C5.883 2.149 5.898 2.188 5.898 2.236V5.98ZM13.998 0.958002H10.254C9.882 0.958002 9.564 1.087 9.3 1.345C9.036 1.603 8.904 1.924 8.904 2.308V6.052C8.904 6.424 9.036 6.742 9.3 7.006C9.564 7.27 9.882 7.402 10.254 7.402H13.998C14.382 7.402 14.703 7.27 14.961 7.006C15.219 6.742 15.348 6.424 15.348 6.052V2.236C15.348 1.864 15.219 1.558 14.961 1.318C14.703 1.078 14.382 0.958002 13.998 0.958002ZM14.16 5.98C14.16 6.016 14.145 6.049 14.115 6.079C14.085 6.109 14.046 6.124 13.998 6.124H10.254C10.218 6.124 10.185 6.109 10.155 6.079C10.125 6.049 10.11 6.016 10.11 5.98V2.236C10.11 2.188 10.125 2.149 10.155 2.119C10.185 2.089 10.218 2.074 10.254 2.074H13.998C14.046 2.074 14.085 2.089 14.115 2.119C14.145 2.149 14.16 2.188 14.16 2.236V5.98ZM13.998 9.202H10.254C9.882 9.202 9.564 9.331 9.3 9.589C9.036 9.847 8.904 10.168 8.904 10.552V14.296C8.904 14.68 9.036 15.004 9.3 15.268C9.564 15.532 9.882 15.664 10.254 15.664H13.998C14.37 15.664 14.688 15.532 14.952 15.268C15.216 15.004 15.348 14.68 15.348 14.296V10.552C15.348 10.144 15.219 9.817 14.961 9.571C14.703 9.325 14.382 9.202 13.998 9.202ZM14.16 14.224C14.16 14.26 14.145 14.296 14.115 14.332C14.085 14.368 14.046 14.386 13.998 14.386H10.254C10.218 14.386 10.185 14.368 10.155 14.332C10.125 14.296 10.11 14.26 10.11 14.224V10.48C10.11 10.444 10.125 10.411 10.155 10.381C10.185 10.351 10.218 10.336 10.254 10.336H13.998C14.046 10.336 14.085 10.351 14.115 10.381C14.145 10.411 14.16 10.444 14.16 10.48V14.224ZM5.754 9.202H2.01C1.638 9.202 1.32 9.331 1.056 9.589C0.792004 9.847 0.660004 10.168 0.660004 10.552V14.296C0.660004 14.68 0.792004 15.004 1.056 15.268C1.32 15.532 1.638 15.664 2.01 15.664H5.754C6.126 15.664 6.444 15.532 6.708 15.268C6.972 15.004 7.104 14.68 7.104 14.296V10.552C7.104 10.144 6.975 9.817 6.717 9.571C6.459 9.325 6.138 9.202 5.754 9.202ZM5.898 14.224C5.898 14.26 5.883 14.296 5.853 14.332C5.823 14.368 5.79 14.386 5.754 14.386H2.01C1.974 14.386 1.938 14.368 1.902 14.332C1.866 14.296 1.848 14.26 1.848 14.224V10.48C1.848 10.444 1.866 10.411 1.902 10.381C1.938 10.351 1.974 10.336 2.01 10.336H5.754C5.79 10.336 5.823 10.351 5.853 10.381C5.883 10.411 5.898 10.444 5.898 10.48V14.224Z" fill="#111827"/>
</svg>
