<svg width="14" height="14" viewBox="0 0 14 14" fill="none" xmlns="http://www.w3.org/2000/svg">
<path d="M7.03302 1.162C6.61302 1.162 6.22335 1.267 5.86402 1.477C5.50469 1.687 5.22002 1.97167 5.01002 2.331C4.80002 2.69033 4.69502 3.08 4.69502 3.5H3.50502C3.50502 2.86533 3.66135 2.27967 3.97402 1.743C4.28669 1.20633 4.71135 0.781666 5.24802 0.469C5.78469 0.156333 6.37035 -4.32134e-07 7.00502 -4.32134e-07C7.63969 -4.32134e-07 8.22535 0.156333 8.76202 0.469C9.29869 0.781666 9.72335 1.20633 10.036 1.743C10.3487 2.27967 10.505 2.86533 10.505 3.5H12.801C13.137 3.5 13.4217 3.619 13.655 3.857C13.8884 4.095 14.005 4.38667 14.005 4.732C14.005 4.80667 14.0004 4.87667 13.991 4.942L12.689 12.474C12.6144 12.9127 12.409 13.2767 12.073 13.566C11.737 13.8553 11.3497 14 10.911 14H3.09902C2.66035 14 2.27302 13.8553 1.93702 13.566C1.60102 13.2767 1.39569 12.9127 1.32102 12.474L0.0190189 4.956C-0.0369811 4.62 0.0306855 4.312 0.222019 4.032C0.413352 3.752 0.672352 3.57933 0.999019 3.514C1.06435 3.50467 1.13435 3.5 1.20902 3.5H9.37102C9.37102 3.08 9.26602 2.69033 9.05602 2.331C8.84602 1.97167 8.56135 1.687 8.20202 1.477C7.84269 1.267 7.45302 1.162 7.03302 1.162ZM12.801 4.662H1.20902C1.19969 4.662 1.18569 4.68067 1.16702 4.718V4.746L2.46902 12.278C2.49702 12.4273 2.56235 12.5533 2.66502 12.656C2.76769 12.7587 2.88902 12.8147 3.02902 12.824L3.09902 12.838H10.911C11.051 12.838 11.1794 12.7937 11.296 12.705C11.4127 12.6163 11.4897 12.4973 11.527 12.348L12.843 4.732C12.843 4.69467 12.8337 4.676 12.815 4.676L12.801 4.662Z" fill="white"/>
</svg>
