<svg width="19" height="15" viewBox="0 0 19 15" fill="none" xmlns="http://www.w3.org/2000/svg">
<path d="M16.94 3.35276e-07H0.7C0.5 0.026667 0.333333 0.12 0.2 0.28C0.0666667 0.44 0 0.62 0 0.82C0 1.02 0.0666667 1.20333 0.2 1.37C0.333333 1.53667 0.5 1.63333 0.7 1.66H3.92L3.34 9.04V9.18C3.34 9.63333 3.50333 10.0233 3.83 10.35C4.15667 10.6767 4.54667 10.84 5 10.84H15.22C15.62 10.84 15.97 10.7167 16.27 10.47C16.57 10.2233 16.76 9.92 16.84 9.56L18.56 2.04C18.5867 1.88 18.6 1.75333 18.6 1.66C18.6 1.19333 18.44 0.8 18.12 0.48C17.8 0.16 17.4067 3.35276e-07 16.94 3.35276e-07ZM15.22 9.16H5L5.58 1.66H16.94L15.22 9.16ZM6.54 15C7.00667 15 7.40333 14.8367 7.73 14.51C8.05667 14.1833 8.22 13.7867 8.22 13.32C8.22 12.8533 8.05667 12.46 7.73 12.14C7.40333 11.82 7.00667 11.66 6.54 11.66C6.08667 11.66 5.69667 11.82 5.37 12.14C5.04333 12.46 4.88 12.8533 4.88 13.32C4.88 13.7867 5.04333 14.1833 5.37 14.51C5.69667 14.8367 6.08667 15 6.54 15ZM14.04 15C14.5067 15 14.9033 14.8367 15.23 14.51C15.5567 14.1833 15.72 13.7867 15.72 13.32C15.72 12.8533 15.5567 12.46 15.23 12.14C14.9033 11.82 14.5067 11.66 14.04 11.66C13.5867 11.66 13.1967 11.82 12.87 12.14C12.5433 12.46 12.38 12.8533 12.38 13.32C12.38 13.7867 12.5433 14.1833 12.87 14.51C13.1967 14.8367 13.5867 15 14.04 15Z" fill="white"/>
</svg>
