<svg width="25" height="20" viewBox="0 0 25 20" fill="none" xmlns="http://www.w3.org/2000/svg">
<path d="M22.022 0H0.91C0.65 0.0346667 0.433333 0.156 0.26 0.364C0.0866667 0.572 0 0.806 0 1.066C0 1.326 0.0866667 1.56433 0.26 1.781C0.433333 1.99767 0.65 2.12333 0.91 2.158H5.096L4.342 11.752V11.934C4.342 12.5233 4.55433 13.0303 4.979 13.455C5.40367 13.8797 5.91067 14.092 6.5 14.092H19.786C20.306 14.092 20.761 13.9317 21.151 13.611C21.541 13.2903 21.788 12.896 21.892 12.428L24.128 2.652C24.1627 2.444 24.18 2.27933 24.18 2.158C24.18 1.55133 23.972 1.04 23.556 0.624001C23.14 0.208001 22.6287 0 22.022 0ZM19.786 11.908H6.5L7.254 2.158H22.022L19.786 11.908ZM8.502 19.5C9.10867 19.5 9.62433 19.2877 10.049 18.863C10.4737 18.4383 10.686 17.9227 10.686 17.316C10.686 16.7093 10.4737 16.198 10.049 15.782C9.62433 15.366 9.10867 15.158 8.502 15.158C7.91267 15.158 7.40567 15.366 6.981 15.782C6.55633 16.198 6.344 16.7093 6.344 17.316C6.344 17.9227 6.55633 18.4383 6.981 18.863C7.40567 19.2877 7.91267 19.5 8.502 19.5ZM18.252 19.5C18.8587 19.5 19.3743 19.2877 19.799 18.863C20.2237 18.4383 20.436 17.9227 20.436 17.316C20.436 16.7093 20.2237 16.198 19.799 15.782C19.3743 15.366 18.8587 15.158 18.252 15.158C17.6627 15.158 17.1557 15.366 16.731 15.782C16.3063 16.198 16.094 16.7093 16.094 17.316C16.094 17.9227 16.3063 18.4383 16.731 18.863C17.1557 19.2877 17.6627 19.5 18.252 19.5Z" fill="#030712"/>
</svg>
