<svg width="26" height="26" viewBox="0 0 26 26" fill="none" xmlns="http://www.w3.org/2000/svg">
<path d="M22.3433 15.6262C21.1299 15.4956 20.1219 15.2249 19.3193 14.8142C18.7406 14.5902 18.1479 14.5482 17.5413 14.6882C16.9346 14.8282 16.3979 15.1036 15.9313 15.5142L14.8673 16.6902C12.5153 15.1596 10.5739 13.2182 9.04326 10.8662L10.1073 9.80222C10.5553 9.35422 10.8399 8.82689 10.9613 8.22022C11.0826 7.61356 11.0313 7.01156 10.8073 6.41422C10.4713 5.53689 10.2379 4.52889 10.1073 3.39022C9.97659 2.62489 9.59859 1.98556 8.97326 1.47222C8.34793 0.958891 7.63393 0.702223 6.83126 0.702223H3.10726C2.52859 0.739557 2.01059 0.926224 1.55326 1.26222C1.09593 1.59822 0.74126 2.02756 0.48926 2.55022C0.23726 3.07289 0.129927 3.62356 0.16726 4.20222C0.353927 6.06889 0.764593 7.89356 1.39926 9.67622C2.03393 11.4589 2.87393 13.1342 3.91926 14.7022C5.78593 17.6516 8.19393 20.0596 11.1433 21.9262C12.7299 22.9156 14.4099 23.7276 16.1833 24.3622C17.9566 24.9969 19.7766 25.4356 21.6433 25.6782H22.0073C22.3993 25.6782 22.7913 25.5942 23.1833 25.4262C23.5753 25.2582 23.9206 25.0296 24.2193 24.7402C24.5179 24.4509 24.7466 24.1102 24.9053 23.7182C25.0639 23.3262 25.1433 22.9249 25.1433 22.5142V19.0142C25.1433 18.1556 24.8819 17.4089 24.3593 16.7742C23.8366 16.1396 23.1646 15.7569 22.3433 15.6262ZM23.2673 18.9022V22.4022C23.2673 22.7942 23.1179 23.1489 22.8193 23.4662C22.4833 23.7649 22.1286 23.9142 21.7553 23.9142H21.6433C19.9259 23.7462 18.2553 23.3729 16.6313 22.7942C14.9513 22.1969 13.3926 21.4036 11.9553 20.4142C10.6299 19.5556 9.39326 18.5522 8.24526 17.4042C7.09726 16.2562 6.08459 15.0102 5.20726 13.6662C4.27393 12.2102 3.51326 10.6609 2.92526 9.01822C2.33726 7.37556 1.93126 5.69556 1.70726 3.97822C1.76326 3.54889 1.93126 3.18956 2.21126 2.90022C2.49126 2.61089 2.82726 2.46622 3.21926 2.46622H6.83126C7.18593 2.46622 7.50793 2.59222 7.79726 2.84422C8.08659 3.09622 8.23126 3.39022 8.23126 3.72622C8.26859 4.21156 8.36193 4.75289 8.51126 5.35022C8.60459 5.72356 8.75393 6.26489 8.95926 6.97422L9.04326 7.22622C9.15526 7.52489 9.18326 7.80956 9.12726 8.08022C9.07126 8.35089 8.93126 8.57956 8.70726 8.76622L7.41926 10.1662C7.25126 10.2782 7.15326 10.4322 7.12526 10.6282C7.09726 10.8242 7.11126 11.0156 7.16726 11.2022C8.04459 12.7142 9.11326 14.1002 10.3733 15.3602C11.6333 16.6202 13.0193 17.6889 14.5313 18.5662C14.6993 18.6782 14.8859 18.7156 15.0913 18.6782C15.2966 18.6409 15.4553 18.5569 15.5673 18.4262L17.1073 16.9142C17.2939 16.7276 17.5366 16.5969 17.8353 16.5222C18.1339 16.4476 18.3953 16.4662 18.6193 16.5782C19.7019 17.0076 20.8686 17.2782 22.1193 17.3902C22.4739 17.4462 22.7726 17.6282 23.0153 17.9362C23.2579 18.2442 23.3419 18.5662 23.2673 18.9022ZM14.8673 2.32622C16.3793 2.47556 17.7513 2.94222 18.9833 3.72622C20.2153 4.51022 21.2233 5.51822 22.0073 6.75022C22.7913 7.98222 23.2579 9.35422 23.4073 10.8662C23.4073 11.0902 23.4959 11.2816 23.6733 11.4402C23.8506 11.5989 24.0326 11.6782 24.2193 11.6782H24.3313C24.5553 11.6782 24.7466 11.5802 24.9053 11.3842C25.0639 11.1882 25.1433 10.9689 25.1433 10.7262C24.9566 8.97156 24.3873 7.35689 23.4353 5.88222C22.5206 4.44489 21.3306 3.26889 19.8653 2.35422C18.3999 1.43956 16.7806 0.888889 15.0073 0.702223C14.7646 0.702223 14.5453 0.781557 14.3493 0.940224C14.1533 1.09889 14.0553 1.28089 14.0553 1.48622C14.0553 1.69156 14.1346 1.88289 14.2933 2.06022C14.4519 2.23756 14.6433 2.32622 14.8673 2.32622ZM14.0553 6.07822C13.9993 6.30222 14.0459 6.51689 14.1953 6.72222C14.3446 6.92756 14.5313 7.05822 14.7553 7.11422C15.7259 7.30089 16.5706 7.75822 17.2893 8.48622C18.0079 9.21422 18.4886 10.0822 18.7313 11.0902C18.7873 11.3142 18.8899 11.4869 19.0393 11.6082C19.1886 11.7296 19.3566 11.7902 19.5433 11.7902H19.6553C19.8979 11.7342 20.0893 11.6036 20.2293 11.3982C20.3693 11.1929 20.4113 10.9689 20.3553 10.7262C20.1313 9.40089 19.5386 8.25289 18.5773 7.28222C17.6159 6.31156 16.4633 5.67689 15.1193 5.37822C14.8766 5.32222 14.6526 5.35489 14.4473 5.47622C14.2419 5.59756 14.1113 5.79822 14.0553 6.07822Z" fill="#111827"/>
</svg>
