<svg width="18" height="18" viewBox="0 0 18 18" fill="none" xmlns="http://www.w3.org/2000/svg">
<path d="M0.791209 8.80765C0.981685 8.80765 1.15018 8.74353 1.2967 8.6153C1.44322 8.48706 1.51648 8.32171 1.51648 8.11924V7.28909C1.51648 6.78965 1.65201 6.33408 1.92308 5.92238C2.19414 5.51069 2.55678 5.18335 3.01099 4.94038C3.4652 4.69741 3.94872 4.57593 4.46154 4.57593H15.6264L13.1648 6.86389C13.0183 6.98538 12.9451 7.13723 12.9451 7.31946C12.9451 7.50169 13.0183 7.66029 13.1648 7.79528C13.2821 7.90326 13.4286 7.95726 13.6044 7.95726C13.6923 7.95726 13.7802 7.94038 13.8681 7.90664C13.956 7.87289 14.022 7.83577 14.0659 7.79528L17.7363 4.41395C17.7656 4.38695 17.7949 4.35321 17.8242 4.31271C17.8535 4.27222 17.8828 4.25197 17.9121 4.25197C18 4.07649 18 3.90776 17.9121 3.74578C17.9121 3.69179 17.8938 3.64792 17.8571 3.61417C17.8205 3.58043 17.7802 3.56355 17.7363 3.56355L14.0659 0.202475C13.9341 0.0674919 13.7692 3.03611e-07 13.5714 3.03611e-07C13.3736 3.03611e-07 13.2015 0.0674919 13.0549 0.202475C12.9084 0.337458 12.8388 0.492689 12.8462 0.668167C12.8535 0.843645 12.9231 0.992126 13.0549 1.11361L15.5385 3.40158H4.46154C3.67033 3.40158 2.93773 3.58043 2.26374 3.93813C1.58974 4.29584 1.05495 4.78515 0.659341 5.40607C0.263736 6.027 0.0659341 6.70866 0.0659341 7.45107V8.30146C0.0659341 8.39595 0.142857 8.50394 0.296703 8.62542C0.450549 8.74691 0.615385 8.80765 0.791209 8.80765ZM17.2747 9.2126C17.0842 9.2126 16.9158 9.27672 16.7692 9.40495C16.6227 9.53318 16.5495 9.69854 16.5495 9.90101V10.7312C16.5495 11.2306 16.4139 11.6862 16.1429 12.0979C15.8718 12.5096 15.5092 12.8369 15.0549 13.0799C14.6007 13.3228 14.1172 13.4443 13.6044 13.4443H2.43956L4.92308 11.1564C5.05495 11.0349 5.12088 10.883 5.12088 10.7008C5.12088 10.5186 5.05495 10.36 4.92308 10.225C4.79121 10.09 4.62271 10.0259 4.41758 10.0326C4.21245 10.0394 4.04396 10.1035 3.91209 10.225L0.241758 13.6063C0.212454 13.6333 0.18315 13.667 0.153846 13.7075C0.124542 13.748 0.0952381 13.7683 0.0659341 13.7683C-0.021978 13.9438 -0.021978 14.1125 0.0659341 14.2745C0.0659341 14.3285 0.0842491 14.3723 0.120879 14.4061C0.157509 14.4398 0.197802 14.4567 0.241758 14.4567L3.91209 17.838C4.0293 17.946 4.17949 18 4.36264 18C4.54579 18 4.69597 17.946 4.81319 17.838C4.95971 17.703 5.03297 17.5444 5.03297 17.3622C5.03297 17.18 4.95971 17.0281 4.81319 16.9066L2.35165 14.6187H13.6044C14.3956 14.6187 15.1282 14.4398 15.8022 14.0821C16.4762 13.7244 17.011 13.2351 17.4066 12.6142C17.8022 11.9933 18 11.3116 18 10.5692V9.71879C18 9.5973 17.9267 9.48256 17.7802 9.37458C17.6337 9.26659 17.4652 9.2126 17.2747 9.2126Z" fill="#030712"/>
</svg>
