<svg width="24" height="15" viewBox="0 0 24 15" fill="none" xmlns="http://www.w3.org/2000/svg">
<mask id="mask0_1_781" style="mask-type:luminance" maskUnits="userSpaceOnUse" x="0" y="0" width="24" height="15">
<path d="M24 0.0303955H0V14.8304H24V0.0303955Z" fill="white"/>
</mask>
<g mask="url(#mask0_1_781)">
<path d="M7.4 14.8304C11.4869 14.8304 14.8 11.5173 14.8 7.4304C14.8 3.34349 11.4869 0.0303955 7.4 0.0303955C3.31309 0.0303955 0 3.34349 0 7.4304C0 11.5173 3.31309 14.8304 7.4 14.8304Z" fill="#DD3D31"/>
<path d="M16.5999 14.8304C20.6868 14.8304 23.9999 11.5173 23.9999 7.4304C23.9999 3.34349 20.6868 0.0303955 16.5999 0.0303955C12.513 0.0303955 9.19995 3.34349 9.19995 7.4304C9.19995 11.5173 12.513 14.8304 16.5999 14.8304Z" fill="#EEB046"/>
<path fill-rule="evenodd" clip-rule="evenodd" d="M12.0001 13.3304C15.2001 10.8304 15.8001 6.13037 13.3001 2.93037C12.9001 2.43037 12.5001 2.03037 12.0001 1.63037C8.80002 4.13037 8.20002 8.83037 10.7001 12.0304C11.1001 12.5304 11.5001 12.9304 12.0001 13.3304Z" fill="#EF7D2F"/>
</g>
</svg>
