<svg width="12" height="12" viewBox="0 0 12 12" fill="none" xmlns="http://www.w3.org/2000/svg">
<path d="M6.29212 0.684987C6.23345 0.567654 6.14912 0.474154 6.03912 0.404487C5.92912 0.33482 5.80812 0.299987 5.67612 0.299987C5.54412 0.299987 5.42129 0.33482 5.30762 0.404487C5.19395 0.474154 5.10779 0.567654 5.04912 0.684987L3.67412 3.53399L0.583119 3.98499C0.458452 3.99965 0.344786 4.04915 0.242119 4.13349C0.139452 4.21782 0.0697857 4.32232 0.033119 4.44699C-0.00354763 4.57165 -0.0072143 4.69815 0.022119 4.82649C0.0514524 4.95482 0.113786 5.06299 0.209119 5.15099L2.44212 7.37299L1.91412 10.497C1.89212 10.629 1.90679 10.7537 1.95812 10.871C2.00945 10.9883 2.08645 11.0873 2.18912 11.168C2.29179 11.2487 2.40912 11.2927 2.54112 11.3C2.67312 11.3073 2.79779 11.2817 2.91512 11.223L5.67612 9.74899L8.43712 11.223C8.55445 11.2817 8.67729 11.3073 8.80562 11.3C8.93395 11.2927 9.05312 11.2505 9.16312 11.1735C9.27312 11.0965 9.35195 10.9975 9.39962 10.8765C9.44729 10.7555 9.46012 10.629 9.43812 10.497L8.89912 7.37299L11.1431 5.15099C11.2385 5.06299 11.3008 4.95482 11.3301 4.82649C11.3595 4.69815 11.3521 4.57165 11.3081 4.44699C11.2641 4.32232 11.1945 4.21782 11.0991 4.13349C11.0038 4.04915 10.8901 3.99965 10.7581 3.98499L7.67812 3.53399L6.29212 0.684987Z" fill="#D1D5DB"/>
</svg>
