<svg width="12" height="12" viewBox="0 0 12 12" fill="none" xmlns="http://www.w3.org/2000/svg">
<path d="M6.79209 0.964986C6.73342 0.847652 6.64909 0.754152 6.53909 0.684485C6.42909 0.614819 6.30809 0.579986 6.17609 0.579986C6.04409 0.579986 5.92126 0.614819 5.80759 0.684485C5.69392 0.754152 5.60776 0.847652 5.54909 0.964986L4.17409 3.81399L1.08309 4.26499C0.958422 4.27965 0.844755 4.32915 0.742089 4.41349C0.639422 4.49782 0.569755 4.60232 0.533089 4.72699C0.496422 4.85165 0.492755 4.97815 0.522089 5.10649C0.551422 5.23482 0.613755 5.34299 0.709089 5.43099L2.94209 7.65299L2.41409 10.777C2.39209 10.909 2.40676 11.0337 2.45809 11.151C2.50942 11.2683 2.58642 11.3673 2.68909 11.448C2.79176 11.5287 2.90909 11.5727 3.04109 11.58C3.17309 11.5873 3.29776 11.5617 3.41509 11.503L6.17609 10.029L8.93709 11.503C9.05442 11.5617 9.17725 11.5873 9.30559 11.58C9.43392 11.5727 9.55309 11.5305 9.66309 11.4535C9.77309 11.3765 9.85192 11.2775 9.89959 11.1565C9.94726 11.0355 9.96009 10.909 9.93809 10.777L9.39909 7.65299L11.6431 5.43099C11.7384 5.34299 11.8008 5.23482 11.8301 5.10649C11.8594 4.97815 11.8521 4.85165 11.8081 4.72699C11.7641 4.60232 11.6944 4.49782 11.5991 4.41349C11.5038 4.32915 11.3901 4.27965 11.2581 4.26499L8.17809 3.81399L6.79209 0.964986Z" fill="#D1D5DB"/>
</svg>
