<svg width="18" height="17" viewBox="0 0 18 17" fill="none" xmlns="http://www.w3.org/2000/svg">
<path d="M12.826 0C12.0633 0 11.3337 0.165001 10.637 0.495001C9.94033 0.825001 9.35733 1.26867 8.888 1.826C8.43333 1.23933 7.86133 0.788333 7.172 0.473C6.48267 0.157666 5.742 0 4.95 0C4.05533 0 3.21933 0.22 2.442 0.66C1.694 1.08533 1.1 1.66467 0.66 2.398C0.22 3.13133 0 3.92333 0 4.774C0 6.37267 0.432667 7.94933 1.298 9.504C1.98733 10.7507 2.948 11.9607 4.18 13.134C5.06 13.9847 6.04267 14.7693 7.128 15.488C7.80267 15.9573 8.30133 16.2653 8.624 16.412C8.68267 16.4707 8.77067 16.5 8.888 16.5C9.00533 16.5 9.13 16.4707 9.262 16.412C9.614 16.236 10.1127 15.928 10.758 15.488C11.8287 14.7693 12.8113 13.9847 13.706 13.134C14.9233 11.9607 15.8767 10.7507 16.566 9.504C17.4313 7.94933 17.864 6.37267 17.864 4.774C17.864 3.92333 17.6367 3.13133 17.182 2.398C16.7273 1.66467 16.1113 1.08167 15.334 0.649C14.5567 0.216334 13.7207 0 12.826 0ZM8.888 15.026C7.94933 14.454 7.084 13.8453 6.292 13.2C4.89867 12.0707 3.79867 10.9047 2.992 9.702C1.90667 8.10333 1.364 6.49 1.364 4.862C1.364 4.23133 1.529 3.64833 1.859 3.113C2.189 2.57767 2.629 2.15233 3.179 1.837C3.729 1.52167 4.31933 1.364 4.95 1.364C5.68333 1.364 6.347 1.55467 6.941 1.936C7.535 2.31733 7.97133 2.83067 8.25 3.476C8.30867 3.62267 8.42233 3.72533 8.591 3.784C8.75967 3.84267 8.93567 3.84267 9.119 3.784C9.30233 3.72533 9.438 3.62267 9.526 3.476C9.80467 2.83067 10.2447 2.31733 10.846 1.936C11.4473 1.55467 12.1073 1.364 12.826 1.364C13.486 1.364 14.091 1.52167 14.641 1.837C15.191 2.15233 15.6237 2.57767 15.939 3.113C16.2543 3.64833 16.412 4.23133 16.412 4.862C16.412 6.46067 15.8693 8.05933 14.784 9.658C13.9627 10.8607 12.8627 12.034 11.484 13.178C10.6627 13.8527 9.79733 14.4687 8.888 15.026Z" fill="#030712"/>
</svg>
