<svg width="14" height="15" viewBox="0 0 14 15" fill="none" xmlns="http://www.w3.org/2000/svg">
<path d="M7.008 3.40799C6.35733 3.40799 5.75733 3.57066 5.208 3.89599C4.65867 4.22132 4.22133 4.65866 3.896 5.20799C3.57067 5.75732 3.408 6.35732 3.408 7.00799C3.408 7.65866 3.57067 8.25866 3.896 8.80799C4.22133 9.35732 4.65867 9.79199 5.208 10.112C5.75733 10.432 6.35733 10.592 7.008 10.592C7.65867 10.592 8.25867 10.432 8.808 10.112C9.35733 9.79199 9.792 9.35732 10.112 8.80799C10.432 8.25866 10.592 7.65866 10.592 7.00799C10.592 6.35732 10.432 5.75732 10.112 5.20799C9.792 4.65866 9.35733 4.22132 8.808 3.89599C8.25867 3.57066 7.65867 3.40799 7.008 3.40799ZM7.008 9.34399C6.58133 9.34399 6.18933 9.23999 5.832 9.03199C5.47467 8.82399 5.192 8.53866 4.984 8.17599C4.776 7.81332 4.672 7.42399 4.672 7.00799C4.672 6.59199 4.776 6.20266 4.984 5.83999C5.192 5.47732 5.47467 5.19199 5.832 4.98399C6.18933 4.77599 6.58133 4.67199 7.008 4.67199C7.43467 4.67199 7.82667 4.77599 8.184 4.98399C8.54133 5.19199 8.824 5.47466 9.032 5.83199C9.24 6.18932 9.344 6.58132 9.344 7.00799C9.344 7.43466 9.24 7.82666 9.032 8.18399C8.824 8.54132 8.53867 8.82399 8.176 9.03199C7.81333 9.23999 7.424 9.34399 7.008 9.34399ZM11.584 3.26399C11.584 3.49866 11.5013 3.69866 11.336 3.86399C11.1707 4.02932 10.9707 4.11199 10.736 4.11199C10.5013 4.11199 10.304 4.02932 10.144 3.86399C9.984 3.69866 9.904 3.49866 9.904 3.26399C9.904 3.02932 9.984 2.83199 10.144 2.67199C10.304 2.51199 10.5013 2.43199 10.736 2.43199C10.9707 2.43199 11.1707 2.51199 11.336 2.67199C11.5013 2.83199 11.584 3.02932 11.584 3.26399ZM13.952 4.11199C13.9307 3.50399 13.84 2.97599 13.68 2.52799C13.4987 2.01599 13.2133 1.56799 12.824 1.18399C12.4347 0.799991 11.984 0.517324 11.472 0.335991C11.024 0.175991 10.496 0.0799905 9.888 0.0479905C9.312 0.0159905 8.34933 -9.45479e-06 7 -9.45479e-06C5.65067 -9.45479e-06 4.688 0.0159905 4.112 0.0479905C3.49333 0.0799905 2.96533 0.175991 2.528 0.335991C2.016 0.517324 1.568 0.799991 1.184 1.18399C0.8 1.56799 0.517333 2.01599 0.336 2.52799C0.165333 2.97599 0.0693333 3.50399 0.048 4.11199C0.016 4.68799 0 5.65066 0 6.99999C0 8.34932 0.016 9.31199 0.048 9.88799C0.0693333 10.496 0.16 11.024 0.32 11.472C0.501333 11.984 0.789333 12.4373 1.184 12.832C1.57867 13.2267 2.032 13.5093 2.544 13.68C2.97067 13.84 3.49333 13.9307 4.112 13.952C4.688 13.9947 5.65067 14.016 7 14.016C8.34933 14.016 9.312 13.9947 9.888 13.952C10.496 13.9307 11.024 13.84 11.472 13.68C11.984 13.4987 12.4347 13.2133 12.824 12.824C13.2133 12.4347 13.4987 11.984 13.68 11.472C13.84 11.024 13.9307 10.496 13.952 9.88799C13.984 9.31199 14 8.35199 14 7.00799C14 5.66399 13.984 4.69866 13.952 4.11199ZM12.464 11.136C12.3467 11.4347 12.1733 11.7013 11.944 11.936C11.7147 12.1707 11.4453 12.3467 11.136 12.464C10.784 12.6027 10.2133 12.6933 9.424 12.736C8.976 12.7573 8.33067 12.7627 7.488 12.752H6.528C5.68533 12.7627 5.04 12.7573 4.592 12.736C3.792 12.6933 3.22133 12.6027 2.88 12.464C2.57067 12.3467 2.30133 12.1733 2.072 11.944C1.84267 11.7147 1.66933 11.4453 1.552 11.136C1.41333 10.784 1.32267 10.2133 1.28 9.42399C1.25867 8.97599 1.25333 8.33066 1.264 7.48799V6.52799C1.25333 5.68532 1.25867 5.03999 1.28 4.59199C1.32267 3.79199 1.41333 3.22132 1.552 2.87999C1.66933 2.57066 1.84267 2.30132 2.072 2.07199C2.30133 1.84266 2.57067 1.66932 2.88 1.55199C3.22133 1.41332 3.78667 1.32266 4.576 1.27999C5.024 1.25866 5.67467 1.25332 6.528 1.26399H7.488C8.33067 1.25332 8.976 1.25866 9.424 1.27999C10.2133 1.32266 10.784 1.41332 11.136 1.55199C11.4453 1.66932 11.7147 1.84266 11.944 2.07199C12.1733 2.30132 12.3467 2.57066 12.464 2.87999C12.6027 3.22132 12.6933 3.78666 12.736 4.57599C12.7573 5.02399 12.7627 5.67466 12.752 6.52799V7.48799C12.7627 8.33066 12.7573 8.97599 12.736 9.42399C12.6933 10.2133 12.6027 10.784 12.464 11.136Z" fill="#FD1D1D"/>
</svg>
