<svg width="63" height="14" viewBox="0 0 63 14" fill="none" xmlns="http://www.w3.org/2000/svg">
<path d="M10.9001 0H7.9C7.9 2.5 6.7 4.8 4.7 6.3L3.5 7.3L8.2 13.7H12.1L7.7 7.8C9.80005 5.8 10.9001 3 10.9001 0Z" fill="black"/>
<path d="M3.1 0H0V13.7H3.1V0Z" fill="black"/>
<path d="M16 0H13V13.7H16V0Z" fill="black"/>
<path d="M41.9 4C40.8 4 39.7 4.3 39 5.3V4.3H36.2V13.7H39.1V8.7C39.1 7.3 40.1 6.6 41.2 6.6C42.4 6.6 43.2 7.3 43.2 8.7V13.7H46V7.7C45.9 5.5 44.2 4 41.9 4Z" fill="black"/>
<path d="M24.9 4.3V4.9C24.1 4.3 23.1 4 22.1 4C19.3 4 17.1 6.2 17.1 9C17.1 11.8 19.3 14 22.1 14C23.1 14 24.1 13.7 24.9 13.1V13.7H27.7V4.3H24.9ZM22.3 11.4C20.9 11.4 19.7 10.3 19.7 9C19.7 7.7 20.8 6.6 22.3 6.6C23.8 6.6 24.9 7.7 24.9 9C24.9 10.3 23.7 11.4 22.3 11.4Z" fill="black"/>
<path d="M32.1 5.50005V4.30005H29.2V13.7001H32.1V9.30005C32.1 7.80005 33.7 7.00005 34.8 7.00005V4.30005C33.7 4.30005 32.7 4.70005 32.1 5.50005Z" fill="black"/>
<path d="M54.7 4.3V4.9C53.9 4.3 53 4 51.9 4C49.1 4 46.9 6.2 46.9 9C46.9 11.8 49.1 14 51.9 14C52.9 14 53.9 13.7 54.7 13.1V13.7H57.5V4.3H54.7ZM52.2 11.4C50.8 11.4 49.6 10.3 49.6 9C49.6 7.7 50.7 6.6 52.2 6.6C53.6 6.6 54.8 7.7 54.8 9C54.7 10.3 53.6 11.4 52.2 11.4Z" fill="black"/>
<path d="M59.7001 4.50005C59.7001 4.40005 59.6001 4.30005 59.5001 4.30005H59.2001V5.00005H59.3001V4.80005H59.4001L59.6001 5.00005H59.7001L59.6001 4.70005C59.7001 4.70005 59.7001 4.60005 59.7001 4.50005ZM59.5001 4.60005H59.4001V4.40005H59.5001C59.6001 4.40005 59.6001 4.40005 59.6001 4.50005C59.6001 4.60005 59.6001 4.60005 59.5001 4.60005Z" fill="black"/>
<path d="M59.5 4C59.1 4 58.8 4.3 58.8 4.7C58.8 5.1 59.1 5.4 59.5 5.4C59.9 5.4 60.2001 5.1 60.2001 4.7C60.2001 4.3 59.8 4 59.5 4ZM59.5 5.2C59.2 5.2 59 5 59 4.6C59 4.3 59.2 4 59.5 4C59.8 4 60 4.2 60 4.6C60 5 59.7 5.2 59.5 5.2Z" fill="black"/>
<path d="M60.6 10.4C59.6 10.4 58.8 11.2 58.8 12.2C58.8 13.2 59.6 14 60.6 14C61.6 14 62.4 13.2 62.4 12.2C62.4 11.1 61.6 10.4 60.6 10.4Z" fill="black"/>
</svg>
