<svg width="24" height="21" viewBox="0 0 24 21" fill="none" xmlns="http://www.w3.org/2000/svg">
<path d="M6.5 2.15804C5.72 2.15804 4.99633 2.35304 4.329 2.74304C3.66167 3.13304 3.133 3.66171 2.743 4.32904C2.353 4.99637 2.158 5.72004 2.158 6.50004C2.158 8.28537 2.66933 9.98404 3.692 11.596C4.524 12.948 5.68533 14.2134 7.176 15.392C8.51067 16.484 10.0447 17.446 11.778 18.278L11.908 18.33C13.6933 17.4807 15.288 16.4927 16.692 15.366L16.64 15.392C18.1307 14.2134 19.292 12.948 20.124 11.596C21.1467 9.98404 21.658 8.28537 21.658 6.50004C21.658 5.72004 21.463 4.99637 21.073 4.32904C20.683 3.66171 20.1543 3.13304 19.487 2.74304C18.8197 2.35304 18.096 2.15804 17.316 2.15804C16.6227 2.15804 15.9683 2.30971 15.353 2.61304C14.7377 2.91637 14.2177 3.33237 13.793 3.86104C13.3683 4.38971 13.0953 4.98337 12.974 5.64204C12.922 5.88471 12.7963 6.08837 12.597 6.25304C12.3977 6.41771 12.168 6.50004 11.908 6.50004C11.648 6.50004 11.4183 6.41771 11.219 6.25304C11.0197 6.08837 10.894 5.88471 10.842 5.64204C10.7207 4.98337 10.4477 4.38971 10.023 3.86104C9.59833 3.33237 9.07833 2.91637 8.463 2.61304C7.84767 2.30971 7.19333 2.15804 6.5 2.15804ZM11.908 20.592C11.752 20.5747 11.596 20.54 11.44 20.488C11.3533 20.4534 11.206 20.384 10.998 20.28C9.09133 19.3787 7.34933 18.2954 5.772 17.03L5.824 17.082C4.14267 15.7647 2.81667 14.326 1.846 12.766C0.615333 10.79 0 8.70137 0 6.50004C0 5.32137 0.290333 4.23371 0.871 3.23704C1.45167 2.24037 2.24033 1.45171 3.237 0.87104C4.23367 0.290374 5.32133 4.00543e-05 6.5 4.00543e-05C7.592 4.00543e-05 8.61033 0.247041 9.555 0.741041C10.4997 1.23504 11.284 1.90671 11.908 2.75604V2.78204C12.532 1.91537 13.3163 1.23504 14.261 0.741041C15.2057 0.247041 16.224 4.00543e-05 17.316 4.00543e-05C18.4947 4.00543e-05 19.5823 0.290374 20.579 0.87104C21.5757 1.45171 22.3643 2.24037 22.945 3.23704C23.5257 4.23371 23.816 5.32137 23.816 6.50004C23.816 8.70137 23.2007 10.79 21.97 12.766C20.9993 14.326 19.6733 15.7647 17.992 17.082C16.4493 18.2954 14.7767 19.344 12.974 20.228L12.818 20.28C12.402 20.488 12.0987 20.592 11.908 20.592Z" fill="#030712"/>
</svg>
