<svg width="14" height="14" viewBox="0 0 14 14" fill="none" xmlns="http://www.w3.org/2000/svg">
<path d="M2.94 13.125H0.225V4.365H2.94V13.125ZM1.575 3.165C1.295 3.165 1.0325 3.0925 0.7875 2.9475C0.5425 2.8025 0.35 2.61 0.21 2.37C0.07 2.13 0 1.865 0 1.575C0 1.285 0.07 1.02 0.21 0.780001C0.35 0.540001 0.54 0.35 0.78 0.21C1.02 0.0700001 1.285 0 1.575 0C1.865 0 2.13 0.0700001 2.37 0.21C2.61 0.35 2.8 0.540001 2.94 0.780001C3.08 1.02 3.15 1.285 3.15 1.575C3.15 1.865 3.08 2.13 2.94 2.37C2.8 2.61 2.6075 2.8025 2.3625 2.9475C2.1175 3.0925 1.855 3.165 1.575 3.165ZM13.125 13.125H10.41V8.865C10.41 8.405 10.39 8.055 10.35 7.815C10.29 7.425 10.165 7.125 9.975 6.915C9.755 6.665 9.43 6.54 9 6.54C8.35 6.54 7.9 6.77 7.65 7.23C7.46 7.58 7.365 8.1 7.365 8.79V13.125H4.65V4.365H7.26V5.55H7.29C7.49 5.17 7.8 4.85 8.22 4.59C8.7 4.29 9.25 4.14 9.87 4.14C10.74 4.14 11.43 4.325 11.94 4.695C12.39 5.025 12.705 5.52 12.885 6.18C13.045 6.73 13.125 7.44 13.125 8.31V13.125Z" fill="#0077B5"/>
</svg>
