<svg width="39" height="21" viewBox="0 0 39 21" fill="none" xmlns="http://www.w3.org/2000/svg">
<rect x="0.699951" y="0.890015" width="37.47" height="20" rx="4" fill="url(#paint0_linear_1_867)"/>
<path d="M11.8037 9.70891C11.7753 9.42245 11.6533 9.19991 11.4379 9.04129C11.2225 8.88268 10.9301 8.80337 10.5608 8.80337C10.3098 8.80337 10.0979 8.83888 9.92513 8.9099C9.7523 8.97856 9.61973 9.07444 9.5274 9.19754C9.43744 9.32065 9.39246 9.46033 9.39246 9.61658C9.38772 9.74679 9.41495 9.86042 9.47413 9.95749C9.53569 10.0546 9.61973 10.1386 9.72626 10.2096C9.8328 10.2783 9.9559 10.3386 10.0956 10.3907C10.2353 10.4404 10.3844 10.4831 10.543 10.5186L11.1964 10.6748C11.5137 10.7458 11.8049 10.8405 12.07 10.9589C12.3352 11.0773 12.5648 11.2229 12.7589 11.3957C12.9531 11.5685 13.1034 11.7721 13.2099 12.0065C13.3188 12.2409 13.3745 12.5096 13.3768 12.8126C13.3745 13.2577 13.2608 13.6436 13.0359 13.9703C12.8134 14.2946 12.4914 14.5467 12.07 14.7267C11.651 14.9042 11.1455 14.993 10.5537 14.993C9.96656 14.993 9.45519 14.903 9.01959 14.7231C8.58635 14.5432 8.24781 14.2769 8.00396 13.9241C7.76248 13.569 7.63583 13.1298 7.62399 12.6066H9.11192C9.12849 12.8505 9.19833 13.0541 9.32143 13.2174C9.44691 13.3784 9.61381 13.5003 9.82214 13.5832C10.0328 13.6637 10.2708 13.7039 10.5359 13.7039C10.7963 13.7039 11.0224 13.6661 11.2142 13.5903C11.4083 13.5145 11.5586 13.4092 11.6652 13.2742C11.7717 13.1393 11.825 12.9842 11.825 12.809C11.825 12.6457 11.7765 12.5084 11.6794 12.3971C11.5847 12.2858 11.445 12.1912 11.2604 12.113C11.0781 12.0349 10.8543 11.9639 10.5892 11.9L9.79729 11.7011C9.18412 11.5519 8.69998 11.3188 8.34487 11.0015C7.98976 10.6843 7.81338 10.257 7.81575 9.71956C7.81338 9.27922 7.93057 8.89451 8.16731 8.56544C8.40642 8.23637 8.73431 7.9795 9.15098 7.79484C9.56765 7.61018 10.0411 7.51786 10.5714 7.51786C11.1112 7.51786 11.5823 7.61018 11.9848 7.79484C12.3896 7.9795 12.7045 8.23637 12.9294 8.56544C13.1543 8.89451 13.2703 9.27567 13.2774 9.70891H11.8037ZM15.1986 14.89H13.5509L16.0616 7.61729H18.0431L20.5502 14.89H18.9025L17.0807 9.27922H17.0239L15.1986 14.89ZM15.0957 12.0313H18.9877V13.2316H15.0957V12.0313ZM21.1256 14.89V7.61729H22.6632V13.6223H25.7811V14.89H21.1256ZM26.4994 14.89V7.61729H31.3999V8.88504H28.037V10.618H31.1478V11.8858H28.037V13.6223H31.4142V14.89H26.4994Z" fill="white"/>
<defs>
<linearGradient id="paint0_linear_1_867" x1="0.699951" y1="10.89" x2="38.17" y2="10.89" gradientUnits="userSpaceOnUse">
<stop stop-color="#DC2626"/>
<stop offset="1" stop-color="#EA580C"/>
</linearGradient>
</defs>
</svg>
