<svg width="18" height="22" viewBox="0 0 18 22" fill="none" xmlns="http://www.w3.org/2000/svg">
<path d="M8.808 9.72748e-05C7.224 9.72748e-05 5.752 0.400098 4.392 1.2001C3.064 1.9681 2.008 3.0161 1.224 4.3441C0.408 5.7201 0 7.2081 0 8.8081C0 10.5201 0.584 12.3361 1.752 14.2561C2.632 15.7121 3.808 17.1841 5.28 18.6721C6.08 19.4721 6.992 20.3041 8.016 21.1681L8.304 21.4081C8.352 21.4561 8.424 21.5001 8.52 21.5401C8.616 21.5801 8.716 21.6001 8.82 21.6001C8.924 21.6001 9.012 21.5881 9.084 21.5641C9.156 21.5401 9.232 21.4881 9.312 21.4081L9.6 21.1681C10.624 20.3041 11.536 19.4721 12.336 18.6721C13.808 17.1841 14.984 15.7121 15.864 14.2561C17.032 12.3361 17.616 10.5201 17.616 8.8081C17.616 7.2081 17.208 5.7201 16.392 4.3441C15.608 3.0161 14.552 1.9681 13.224 1.2001C11.864 0.400098 10.392 9.72748e-05 8.808 9.72748e-05ZM8.808 19.7041C7.96 19.0161 7.096 18.2241 6.216 17.3281C4.92 15.9681 3.888 14.6401 3.12 13.3441C2.112 11.6641 1.608 10.1201 1.608 8.7121C1.608 7.4001 1.936 6.1841 2.592 5.0641C3.216 3.9761 4.072 3.1201 5.16 2.4961C6.28 1.8401 7.496 1.5121 8.808 1.5121C10.12 1.5121 11.336 1.8481 12.456 2.5201C13.544 3.1601 14.408 4.0321 15.048 5.1361C15.688 6.2401 16.008 7.4321 16.008 8.7121C16.008 10.1681 15.504 11.7361 14.496 13.4161C13.728 14.6961 12.696 16.0081 11.4 17.3521C10.552 18.2161 9.688 19.0001 8.808 19.7041ZM8.808 4.9921C8.12 4.9921 7.488 5.1641 6.912 5.5081C6.336 5.8521 5.876 6.3161 5.532 6.9001C5.188 7.4841 5.016 8.1201 5.016 8.8081C5.016 9.4961 5.188 10.1321 5.532 10.7161C5.876 11.3001 6.336 11.7601 6.912 12.0961C7.488 12.4321 8.12 12.6001 8.808 12.6001C9.496 12.6001 10.132 12.4281 10.716 12.0841C11.3 11.7401 11.76 11.2801 12.096 10.7041C12.432 10.1281 12.6 9.4961 12.6 8.8081C12.6 8.1201 12.432 7.4841 12.096 6.9001C11.76 6.3161 11.3 5.8521 10.716 5.5081C10.132 5.1641 9.496 4.9921 8.808 4.9921ZM8.808 10.9921C8.2 10.9921 7.68 10.7761 7.248 10.3441C6.816 9.9121 6.6 9.4001 6.6 8.8081C6.6 8.4081 6.7 8.0401 6.9 7.7041C7.1 7.3681 7.368 7.1001 7.704 6.9001C8.04 6.7001 8.408 6.6001 8.808 6.6001C9.208 6.6001 9.576 6.7001 9.912 6.9001C10.248 7.1001 10.516 7.3681 10.716 7.7041C10.916 8.0401 11.016 8.4081 11.016 8.8081C11.016 9.4001 10.8 9.9121 10.368 10.3441C9.936 10.7761 9.416 10.9921 8.808 10.9921Z" fill="#030712"/>
</svg>
