<svg width="26" height="21" viewBox="0 0 26 21" fill="none" xmlns="http://www.w3.org/2000/svg">
<path d="M21.924 1.81049e-06H3.276C2.69733 1.81049e-06 2.156 0.140002 1.652 0.420002C1.148 0.700002 0.746667 1.08267 0.448 1.568C0.149333 2.05334 0 2.58534 0 3.164V17.164C0 17.7427 0.144667 18.284 0.434 18.788C0.723333 19.292 1.11533 19.6933 1.61 19.992C2.10467 20.2907 2.66 20.44 3.276 20.44H21.924C22.5027 20.44 23.044 20.2953 23.548 20.006C24.052 19.7167 24.4533 19.3247 24.752 18.83C25.0507 18.3353 25.2 17.78 25.2 17.164V3.164C25.2 2.58534 25.0507 2.05334 24.752 1.568C24.4533 1.08267 24.052 0.700002 23.548 0.420002C23.044 0.140002 22.5027 1.81049e-06 21.924 1.81049e-06ZM3.276 1.764H21.924C22.3347 1.764 22.6707 1.904 22.932 2.184C23.1933 2.464 23.324 2.79067 23.324 3.164V3.864L13.3 10.276C13.0573 10.388 12.8053 10.444 12.544 10.444C12.2827 10.444 12.0307 10.388 11.788 10.276L1.876 3.864V3.164C1.876 2.75334 2.00667 2.41734 2.268 2.156C2.52933 1.89467 2.86533 1.764 3.276 1.764ZM21.924 18.676H3.276C2.884 18.676 2.55267 18.5313 2.282 18.242C2.01133 17.9527 1.876 17.6307 1.876 17.276V5.964L10.976 11.788C11.368 12.1053 11.9093 12.264 12.6 12.264C13.2907 12.264 13.832 12.1053 14.224 11.788L23.324 5.964V17.164C23.324 17.5747 23.1933 17.9293 22.932 18.228C22.6707 18.5267 22.3347 18.676 21.924 18.676Z" fill="#111827"/>
</svg>
