<svg width="18" height="15" viewBox="0 0 18 15" fill="none" xmlns="http://www.w3.org/2000/svg">
<path d="M15.66 6.42985e-06H2.34C1.92667 6.42985e-06 1.54 0.100006 1.18 0.300006C0.82 0.500006 0.533333 0.77334 0.32 1.12001C0.106667 1.46667 0 1.84667 0 2.26001V12.26C0 12.6733 0.103333 13.06 0.31 13.42C0.516667 13.78 0.796667 14.0667 1.15 14.28C1.50333 14.4933 1.9 14.6 2.34 14.6H15.66C16.0733 14.6 16.46 14.4967 16.82 14.29C17.18 14.0833 17.4667 13.8033 17.68 13.45C17.8933 13.0967 18 12.7 18 12.26V2.26001C18 1.84667 17.8933 1.46667 17.68 1.12001C17.4667 0.77334 17.18 0.500006 16.82 0.300006C16.46 0.100006 16.0733 6.42985e-06 15.66 6.42985e-06ZM2.34 1.26001H15.66C15.9533 1.26001 16.1933 1.36001 16.38 1.56001C16.5667 1.76001 16.66 1.99334 16.66 2.26001V2.76001L9.5 7.34001C9.32667 7.42001 9.14667 7.46001 8.96 7.46001C8.77333 7.46001 8.59333 7.42001 8.42 7.34001L1.34 2.76001V2.26001C1.34 1.96667 1.43333 1.72667 1.62 1.54001C1.80667 1.35334 2.04667 1.26001 2.34 1.26001ZM15.66 13.34H2.34C2.06 13.34 1.82333 13.2367 1.63 13.03C1.43667 12.8233 1.34 12.5933 1.34 12.34V4.26001L7.84 8.42001C8.12 8.64667 8.50667 8.76001 9 8.76001C9.49333 8.76001 9.88 8.64667 10.16 8.42001L16.66 4.26001V12.26C16.66 12.5533 16.5667 12.8067 16.38 13.02C16.1933 13.2333 15.9533 13.34 15.66 13.34Z" fill="#9CA3AF"/>
</svg>
