<svg width="15" height="15" viewBox="0 0 15 15" fill="none" xmlns="http://www.w3.org/2000/svg">
<path d="M5.094 5.53131e-05H1.35C0.966 5.53131e-05 0.645 0.120055 0.387 0.360055C0.129 0.600055 0 0.906055 0 1.27806V5.02205C0 5.39405 0.132 5.71206 0.396 5.97606C0.66 6.24006 0.978 6.37206 1.35 6.37206H5.094C5.478 6.37206 5.799 6.24006 6.057 5.97606C6.315 5.71206 6.444 5.39405 6.444 5.02205V1.27806C6.444 0.906055 6.315 0.600055 6.057 0.360055C5.799 0.120055 5.478 5.53131e-05 5.094 5.53131e-05ZM5.238 5.02205C5.238 5.05805 5.223 5.09105 5.193 5.12105C5.163 5.15105 5.13 5.16605 5.094 5.16605H1.35C1.314 5.20205 1.278 5.19905 1.242 5.15705C1.206 5.11505 1.188 5.07005 1.188 5.02205V1.27806C1.188 1.23006 1.206 1.19106 1.242 1.16106C1.278 1.13106 1.314 1.11606 1.35 1.11606H5.094C5.13 1.11606 5.163 1.13106 5.193 1.16106C5.223 1.19106 5.238 1.23006 5.238 1.27806V5.02205ZM5.094 8.24405H1.35C0.978 8.24405 0.66 8.37305 0.396 8.63105C0.132 8.88905 0 9.21005 0 9.59405V13.3381C0 13.7221 0.132 14.0461 0.396 14.3101C0.66 14.5741 0.978 14.7061 1.35 14.7061H5.094C5.466 14.7061 5.784 14.5741 6.048 14.3101C6.312 14.0461 6.444 13.7221 6.444 13.3381V9.59405C6.444 9.18605 6.315 8.85905 6.057 8.61305C5.799 8.36705 5.478 8.24405 5.094 8.24405ZM5.238 13.2661C5.238 13.3021 5.223 13.3381 5.193 13.3741C5.163 13.4101 5.13 13.4281 5.094 13.4281H1.35C1.314 13.4281 1.278 13.4101 1.242 13.3741C1.206 13.3381 1.188 13.3021 1.188 13.2661V9.52205C1.188 9.48605 1.206 9.45305 1.242 9.42305C1.278 9.39305 1.314 9.37806 1.35 9.37806H5.094C5.13 9.37806 5.163 9.39305 5.193 9.42305C5.223 9.45305 5.238 9.48605 5.238 9.52205V13.2661ZM8.838 1.87206H14.094C14.25 1.87206 14.388 1.81506 14.508 1.70106C14.628 1.58706 14.688 1.44606 14.688 1.27806C14.688 1.11006 14.631 0.978055 14.517 0.882055C14.403 0.786055 14.262 0.738055 14.094 0.738055H8.838C8.682 0.738055 8.544 0.795056 8.424 0.909056C8.304 1.02306 8.244 1.17006 8.244 1.35006C8.244 1.53006 8.301 1.66206 8.415 1.74606C8.529 1.83006 8.67 1.87206 8.838 1.87206ZM14.094 4.50006H8.838C8.682 4.50006 8.544 4.55406 8.424 4.66206C8.304 4.77006 8.244 4.91706 8.244 5.10306C8.244 5.28905 8.298 5.43306 8.406 5.53506C8.514 5.63706 8.658 5.68806 8.838 5.68806H14.094C14.25 5.68806 14.388 5.63406 14.508 5.52606C14.628 5.41806 14.688 5.27406 14.688 5.09406C14.688 4.91406 14.628 4.77006 14.508 4.66206C14.388 4.55406 14.25 4.50006 14.094 4.50006ZM14.094 9.00005H8.838C8.682 9.00005 8.544 9.05406 8.424 9.16206C8.304 9.27006 8.244 9.41706 8.244 9.60306C8.244 9.78905 8.298 9.93305 8.406 10.0351C8.514 10.1371 8.658 10.1881 8.838 10.1881H14.094C14.25 10.1881 14.388 10.1341 14.508 10.0261C14.628 9.91805 14.688 9.77405 14.688 9.59405C14.688 9.41405 14.628 9.27006 14.508 9.16206C14.388 9.05406 14.25 9.00005 14.094 9.00005ZM14.094 12.7441H8.838C8.682 12.7441 8.544 12.8011 8.424 12.9151C8.304 13.0291 8.244 13.1731 8.244 13.3471C8.244 13.5211 8.298 13.6651 8.406 13.7791C8.514 13.8931 8.658 13.9501 8.838 13.9501H14.094C14.25 13.9501 14.388 13.8931 14.508 13.7791C14.628 13.6651 14.688 13.5181 14.688 13.3381C14.688 13.1581 14.628 13.0141 14.508 12.9061C14.388 12.7981 14.25 12.7441 14.094 12.7441Z" fill="#6B7280"/>
</svg>
