<svg width="24" height="17" viewBox="0 0 24 17" fill="none" xmlns="http://www.w3.org/2000/svg">
<path d="M20.358 6.10575e-06H3.042C2.50467 6.10575e-06 2.002 0.130006 1.534 0.390006C1.066 0.650006 0.693333 1.00534 0.416 1.45601C0.138667 1.90667 0 2.40067 0 2.93801V13.754C0 14.2913 0.134333 14.794 0.403 15.262C0.671667 15.73 1.03567 16.1027 1.495 16.38C1.95433 16.6573 2.47 16.796 3.042 16.796H20.358C20.8953 16.796 21.398 16.6617 21.866 16.393C22.334 16.1243 22.7067 15.7603 22.984 15.301C23.2613 14.8417 23.4 14.326 23.4 13.754V2.93801C23.4 2.40067 23.2613 1.90667 22.984 1.45601C22.7067 1.00534 22.334 0.650006 21.866 0.390006C21.398 0.130006 20.8953 6.10575e-06 20.358 6.10575e-06ZM3.042 1.63801H20.358C20.7393 1.63801 21.0513 1.76801 21.294 2.02801C21.5367 2.28801 21.658 2.59134 21.658 2.93801V5.30401H1.742V2.93801C1.742 2.55667 1.86333 2.24467 2.106 2.00201C2.34867 1.75934 2.66067 1.63801 3.042 1.63801ZM20.358 15.158H3.042C2.678 15.158 2.37033 15.0237 2.119 14.755C1.86767 14.4863 1.742 14.1873 1.742 13.858V7.15001H21.788V13.754C21.7187 14.1527 21.5583 14.4863 21.307 14.755C21.0557 15.0237 20.7393 15.158 20.358 15.158Z" fill="#6B7280"/>
</svg>
