<svg width="52" height="14" viewBox="0 0 52 14" fill="none" xmlns="http://www.w3.org/2000/svg">
<path d="M6.2054 0H2.1804C1.9054 0 1.6679 0.199991 1.6304 0.474987L0.00540405 10.7749C-0.032096 10.9749 0.130404 11.1624 0.342904 11.1624H2.2679C2.5429 11.1624 2.7804 10.9625 2.8179 10.6875L3.2554 7.91249C3.2929 7.63749 3.5304 7.4375 3.8054 7.4375H5.0679C7.7179 7.4375 9.2429 6.16251 9.64293 3.61251C9.81793 2.50001 9.65543 1.625 9.1304 1.0125C8.5554 0.362497 7.5429 0 6.2054 0ZM6.6679 3.775C6.4429 5.2125 5.3429 5.2125 4.2804 5.2125H3.6679L4.0929 2.525C4.1179 2.3625 4.2554 2.23751 4.4179 2.23751H4.6929C5.4179 2.23751 6.1054 2.2375 6.4554 2.65C6.6804 2.9 6.7429 3.2625 6.6679 3.775Z" fill="#283B82"/>
<path d="M18.2179 3.72498H16.2929C16.1304 3.72498 15.9929 3.84999 15.9679 4.01249L15.8804 4.55L15.7429 4.34998C15.3304 3.74998 14.3929 3.53748 13.4679 3.53748C11.3429 3.53748 9.53043 5.14998 9.16793 7.41248C8.98043 8.53748 9.24293 9.61254 9.88043 10.375C10.4679 11.0625 11.3054 11.3499 12.3054 11.3499C14.0179 11.3499 14.9679 10.25 14.9679 10.25L14.8804 10.7874C14.8429 10.9874 15.0054 11.175 15.2054 11.175H16.9429C17.2179 11.175 17.4554 10.975 17.4929 10.7L18.5304 4.1125C18.5804 3.9125 18.4179 3.72498 18.2179 3.72498ZM15.5304 7.47498C15.3429 8.57498 14.4679 9.31254 13.3554 9.31254C12.7929 9.31254 12.3554 9.13748 12.0679 8.78748C11.7804 8.44998 11.6804 7.97499 11.7679 7.43749C11.9429 6.34999 12.8304 5.58749 13.9304 5.58749C14.4804 5.58749 14.9179 5.775 15.2179 6.1125C15.4929 6.45 15.6179 6.93748 15.5304 7.47498Z" fill="#283B82"/>
<path d="M28.4679 3.72495H26.5304C26.3429 3.72495 26.1679 3.81245 26.0679 3.97495L23.4054 7.89995L22.2804 4.12496C22.2054 3.88746 21.9929 3.72495 21.7429 3.72495H19.8429C19.6179 3.72495 19.4554 3.94995 19.5304 4.16245L21.6554 10.4124L19.6554 13.2374C19.4929 13.4624 19.6554 13.7624 19.9304 13.7624H21.8679C22.0554 13.7624 22.2179 13.6749 22.3304 13.5249L28.7679 4.23747C28.8929 4.02497 28.7304 3.72495 28.4679 3.72495Z" fill="#283B82"/>
<path d="M34.868 0H30.843C30.568 0 30.3305 0.199991 30.293 0.474987L28.668 10.7749C28.6305 10.9749 28.793 11.1624 28.993 11.1624H31.068C31.2555 11.1624 31.418 11.0249 31.4555 10.8374L31.918 7.91249C31.9555 7.63749 32.193 7.4375 32.468 7.4375H33.743C36.393 7.4375 37.918 6.16251 38.318 3.61251C38.493 2.50001 38.3305 1.625 37.8055 1.0125C37.2305 0.362497 36.218 0 34.868 0ZM35.3305 3.775C35.1055 5.2125 34.0055 5.2125 32.943 5.2125H32.343L32.768 2.525C32.793 2.3625 32.9305 2.23751 33.093 2.23751H33.368C34.093 2.23751 34.7805 2.2375 35.1305 2.65C35.343 2.9 35.4055 3.2625 35.3305 3.775Z" fill="#469BDB"/>
<path d="M46.8804 3.72498H44.9554C44.7929 3.72498 44.6554 3.84999 44.6304 4.01249L44.5429 4.55L44.4054 4.34998C43.9929 3.74998 43.0554 3.53748 42.1304 3.53748C40.0054 3.53748 38.1929 5.14998 37.8304 7.41248C37.6429 8.53748 37.9054 9.61254 38.5429 10.375C39.1304 11.0625 39.9679 11.3499 40.9679 11.3499C42.6804 11.3499 43.6304 10.25 43.6304 10.25L43.5429 10.7874C43.5054 10.9874 43.6679 11.175 43.8804 11.175H45.6179C45.8929 11.175 46.1304 10.975 46.1679 10.7L47.2054 4.1125C47.2429 3.9125 47.0804 3.72498 46.8804 3.72498ZM44.1929 7.47498C44.0054 8.57498 43.1304 9.31254 42.0179 9.31254C41.4554 9.31254 41.0179 9.13748 40.7304 8.78748C40.4429 8.44998 40.3429 7.97499 40.4304 7.43749C40.6054 6.34999 41.4929 5.58749 42.5929 5.58749C43.1429 5.58749 43.5804 5.775 43.8804 6.1125C44.1679 6.45 44.2804 6.93748 44.1929 7.47498Z" fill="#469BDB"/>
<path d="M49.143 0.287419L47.493 10.7874C47.4555 10.9874 47.618 11.1749 47.818 11.1749H49.4805C49.7555 11.1749 49.993 10.9749 50.0305 10.6999L51.6555 0.399929C51.693 0.199925 51.5305 0.0124281 51.3305 0.0124281H49.468C49.318 -7.18957e-05 49.1805 0.124922 49.143 0.287419Z" fill="#469BDB"/>
</svg>
