<svg width="17" height="18" viewBox="0 0 17 18" fill="none" xmlns="http://www.w3.org/2000/svg">
<path d="M15.0947 10.7556C14.2691 10.6614 13.5832 10.4664 13.037 10.1704C12.6433 10.009 12.24 9.9787 11.8272 10.0796C11.4144 10.1805 11.0492 10.3789 10.7316 10.6749L10.0076 11.5224C8.40719 10.4193 7.0862 9.02018 6.04465 7.32511L6.76866 6.5583C7.0735 6.23543 7.2672 5.85538 7.34977 5.41816C7.43233 4.98094 7.3974 4.54709 7.24497 4.11659C7.01634 3.4843 6.85757 2.75785 6.76866 1.93722C6.67974 1.38565 6.42253 0.924888 5.99702 0.554933C5.57151 0.184977 5.08566 -7.45058e-08 4.53948 -7.45058e-08H2.00546C1.6117 0.0269058 1.25923 0.161435 0.94803 0.403587C0.636834 0.64574 0.395499 0.955157 0.224024 1.33184C0.0525488 1.70852 -0.0204869 2.10538 0.00491685 2.52242C0.131935 3.86771 0.411376 5.18274 0.843239 6.46749C1.2751 7.75224 1.84669 8.95964 2.55799 10.0897C3.82818 12.2152 5.46671 13.9507 7.47361 15.296C8.55327 16.009 9.69643 16.5942 10.9031 17.0516C12.1098 17.509 13.3482 17.8251 14.6184 18H14.8661C15.1328 18 15.3996 17.9395 15.6663 17.8184C15.933 17.6973 16.168 17.5325 16.3713 17.324C16.5745 17.1155 16.7301 16.87 16.8381 16.5874C16.946 16.3049 17 16.0157 17 15.7197V13.1973C17 12.5785 16.8222 12.0404 16.4665 11.583C16.1109 11.1256 15.6536 10.8498 15.0947 10.7556ZM15.7235 13.1166V15.639C15.7235 15.9215 15.6218 16.1771 15.4186 16.4058C15.19 16.6211 14.9487 16.7287 14.6946 16.7287H14.6184C13.4498 16.6076 12.313 16.3386 11.208 15.9215C10.0648 15.491 9.00418 14.9193 8.02614 14.2063C7.12431 13.5874 6.28281 12.8643 5.50165 12.037C4.72048 11.2096 4.03141 10.3117 3.43442 9.34305C2.79933 8.29372 2.28172 7.17713 1.88162 5.99327C1.48151 4.80942 1.20524 3.59865 1.05282 2.36099C1.09093 2.05157 1.20524 1.7926 1.39577 1.58408C1.5863 1.37556 1.81493 1.2713 2.08167 1.2713H4.53948C4.78082 1.2713 4.99992 1.36211 5.1968 1.54372C5.39368 1.72534 5.49212 1.93722 5.49212 2.17937C5.51752 2.52915 5.58103 2.91928 5.68265 3.34978C5.74616 3.61883 5.84777 4.00897 5.98749 4.52018L6.04465 4.70179C6.12086 4.91704 6.13991 5.1222 6.10181 5.31726C6.0637 5.51233 5.96844 5.67713 5.81602 5.81166L4.93959 6.82063C4.82527 6.90135 4.75859 7.01233 4.73953 7.15359C4.72048 7.29484 4.73001 7.43274 4.76811 7.56726C5.3651 8.65695 6.09228 9.65583 6.94966 10.5639C7.80703 11.472 8.75014 12.2422 9.779 12.8744C9.89331 12.9552 10.0203 12.9821 10.1601 12.9552C10.2998 12.9283 10.4077 12.8677 10.4839 12.7735L11.5319 11.6839C11.6589 11.5493 11.824 11.4552 12.0272 11.4013C12.2305 11.3475 12.4083 11.361 12.5607 11.4417C13.2974 11.7511 14.0913 11.9462 14.9423 12.0269C15.1836 12.0673 15.3869 12.1984 15.552 12.4204C15.7171 12.6424 15.7743 12.8744 15.7235 13.1166ZM10.0076 1.1704C11.0365 1.27803 11.9701 1.61435 12.8084 2.17937C13.6467 2.74439 14.3326 3.47085 14.8661 4.35874C15.3996 5.24664 15.7171 6.23543 15.8187 7.32511C15.8187 7.48655 15.8791 7.62444 15.9997 7.73879C16.1204 7.85314 16.2442 7.91031 16.3713 7.91031H16.4475C16.5999 7.91031 16.7301 7.83969 16.8381 7.69843C16.946 7.55717 17 7.3991 17 7.22422C16.873 5.95964 16.4856 4.79596 15.8378 3.73318C15.2154 2.69731 14.4056 1.84978 13.4086 1.19058C12.4115 0.53139 11.3096 0.134529 10.1029 -7.45058e-08C9.93777 -7.45058e-08 9.78852 0.0571748 9.65515 0.171525C9.52178 0.285874 9.4551 0.41704 9.4551 0.565022C9.4551 0.713004 9.50908 0.850897 9.61705 0.978699C9.72501 1.1065 9.85521 1.1704 10.0076 1.1704ZM9.4551 3.87444C9.41699 4.03587 9.44875 4.19058 9.55036 4.33856C9.65198 4.48655 9.779 4.58072 9.93142 4.62108C10.5919 4.75561 11.1667 5.0852 11.6557 5.60987C12.1447 6.13453 12.4718 6.76009 12.6369 7.48655C12.675 7.64798 12.7449 7.77242 12.8465 7.85987C12.9481 7.94731 13.0624 7.99103 13.1894 7.99103H13.2657C13.4308 7.95067 13.561 7.8565 13.6562 7.70852C13.7515 7.56054 13.7801 7.3991 13.742 7.22422C13.5896 6.26906 13.1863 5.4417 12.5321 4.74215C11.878 4.0426 11.0936 3.5852 10.1791 3.36996C10.014 3.3296 9.86156 3.35314 9.72184 3.44058C9.58212 3.52803 9.4932 3.67265 9.4551 3.87444Z" fill="#111827"/>
</svg>
