<svg width="5" height="12" viewBox="0 0 5 12" fill="none" xmlns="http://www.w3.org/2000/svg">
<path d="M6.79212 0.404958C6.73345 0.287624 6.64912 0.194124 6.53912 0.124457C6.42912 0.0547905 6.30812 0.0199575 6.17612 0.0199575C6.04412 0.0199575 5.92129 0.0547905 5.80762 0.124457C5.69395 0.194124 5.60779 0.287624 5.54912 0.404958L4.17412 3.25396L1.08312 3.70496C0.958452 3.71962 0.844786 3.76912 0.742119 3.85346C0.639452 3.93779 0.569786 4.04229 0.533119 4.16696C0.496452 4.29162 0.492786 4.41812 0.522119 4.54646C0.551452 4.67479 0.613786 4.78296 0.709119 4.87096L2.94212 7.09296L2.41412 10.217C2.39212 10.349 2.40679 10.4736 2.45812 10.591C2.50945 10.7083 2.58645 10.8073 2.68912 10.888C2.79179 10.9686 2.90912 11.0126 3.04112 11.02C3.17312 11.0273 3.29779 11.0016 3.41512 10.943L6.17612 9.46896L8.93712 10.943C9.05445 11.0016 9.17729 11.0273 9.30562 11.02C9.43395 11.0126 9.55312 10.9705 9.66312 10.8935C9.77312 10.8165 9.85195 10.7175 9.89962 10.5965C9.94729 10.4755 9.96012 10.349 9.93812 10.217L9.39912 7.09296L11.6431 4.87096C11.7385 4.78296 11.8008 4.67479 11.8301 4.54646C11.8595 4.41812 11.8521 4.29162 11.8081 4.16696C11.7641 4.04229 11.6945 3.93779 11.5991 3.85346C11.5038 3.76912 11.3901 3.71962 11.2581 3.70496L8.17812 3.25396L6.79212 0.404958Z" fill="#FACC15"/>
</svg>
