<svg width="22" height="22" viewBox="0 0 22 22" fill="none" xmlns="http://www.w3.org/2000/svg">
<path d="M20.904 19.7081L16.796 15.6001C17.5067 14.7681 18.0613 13.8277 18.46 12.7791C18.8587 11.7304 19.058 10.6427 19.058 9.51606C19.058 7.80006 18.6247 6.20539 17.758 4.73206C16.926 3.29339 15.7907 2.1494 14.352 1.30006C12.8787 0.433396 11.2753 6.10352e-05 9.542 6.10352e-05C7.80867 6.10352e-05 6.20533 0.433396 4.732 1.30006C3.29333 2.13206 2.14933 3.25873 1.3 4.68006C0.433333 6.17073 0 7.77839 0 9.50306C0 11.2277 0.433333 12.8267 1.3 14.3001C2.132 15.7387 3.25867 16.8827 4.68 17.7321C6.17067 18.6161 7.78267 19.0581 9.516 19.0581C10.6427 19.0581 11.7303 18.8587 12.779 18.4601C13.8277 18.0614 14.768 17.5067 15.6 16.7961L19.708 20.9041C19.76 20.9561 19.838 21.0037 19.942 21.0471C20.046 21.0904 20.15 21.1121 20.254 21.1121C20.358 21.1121 20.462 21.0904 20.566 21.0471C20.67 21.0037 20.748 20.9561 20.8 20.9041C21.008 20.6961 21.1163 20.4881 21.125 20.2801C21.1337 20.0721 21.06 19.8814 20.904 19.7081ZM1.716 9.41206C1.716 7.99073 2.07133 6.67339 2.782 5.46006C3.47533 4.29873 4.40267 3.3714 5.564 2.67806C6.77733 1.9674 8.09467 1.61206 9.516 1.61206C10.9373 1.61206 12.2547 1.97606 13.468 2.70406C14.6467 3.39739 15.5827 4.34206 16.276 5.53806C16.9693 6.73406 17.316 8.03406 17.316 9.43806C17.316 10.8421 16.952 12.1507 16.224 13.3641C15.5307 14.5427 14.586 15.4787 13.39 16.1721C12.194 16.8654 10.9027 17.2121 9.516 17.2121C8.112 17.2467 6.79467 16.9087 5.564 16.1981C4.40267 15.5221 3.471 14.5774 2.769 13.3641C2.067 12.1507 1.716 10.8334 1.716 9.41206Z" fill="black"/>
</svg>
