<svg width="40" height="14" viewBox="0 0 40 14" fill="none" xmlns="http://www.w3.org/2000/svg">
<mask id="mask0_1_79" style="mask-type:luminance" maskUnits="userSpaceOnUse" x="0" y="0" width="40" height="14">
<path d="M40 0H0V14H40V0Z" fill="white"/>
</mask>
<g mask="url(#mask0_1_79)">
<path d="M28.8 3.39995C29.7 3.39995 30.4 2.69995 30.4 1.79995C30.4 0.89995 29.7 0.199951 28.8 0.199951C27.9 0.199951 27.2 0.89995 27.2 1.79995C27.1 2.69995 27.8 3.39995 28.8 3.39995C28.8 3.49995 28.8 3.49995 28.8 3.39995ZM16.2 4.29995C16.1 4.49995 15.6 5.99995 14.3 7.59995V0.89995L10.9 1.59995V13.7H14.3V9.99998C15.3 11.5 15.8 13.7 15.8 13.7H19.9C19.5 12 17.7 8.89995 17.7 8.89995C18.8 7.49995 19.6 5.99995 20.1 4.39995L16.2 4.29995ZM25.2 4.19995C22.1 4.29995 20.6 5.69995 20.6 8.39995V13.7H24V9.39998C24 7.79995 24.2 7.09995 26.2 6.99995V4.29995C25.8 4.19995 25.2 4.19995 25.2 4.19995ZM5.1 5.69995C4.7 5.69995 3.7 5.59995 3.7 4.69995C3.7 3.59995 5.1 3.59995 5.6 3.59995C6.5 3.59995 7.7 3.89995 8.6 4.09995C8.9 4.19995 9.2 4.29995 9.5 4.39995V1.59995H9.4C8.4 1.19995 7.2 0.89995 5 0.89995C1.3 0.89995 0 3.09995 0 4.99995C0 6.09995 0.5 8.59995 4.8 8.89995C5.2 8.89995 6.1 8.99995 6.1 9.89998C6.1 10.6 5.3 11.1 4 11.1C2.5 11.1 1.1 10.7 0.3 10.4V13.4C1.6 13.7 3 13.9 4.7 13.9C8.4 13.9 10 11.8 10 9.79998C10 7.39995 8.2 5.89995 5.1 5.69995ZM27.1 13.7H30.4V4.29995H27.1V13.7ZM36.7 1.49995V13.7H40V0.89995L36.7 1.49995ZM31.8 1.49995L35.1 0.89995V13.7H31.8V1.49995Z" fill="#862565"/>
</g>
</svg>
