<svg width="12" height="11" viewBox="0 0 12 11" fill="none" xmlns="http://www.w3.org/2000/svg">
<path d="M6.28956 0.384999C6.23089 0.267666 6.14656 0.174166 6.03656 0.104499C5.92656 0.0348322 5.80556 -9.53674e-07 5.67356 -9.53674e-07C5.54156 -9.53674e-07 5.41872 0.0348322 5.30506 0.104499C5.19139 0.174166 5.10522 0.267666 5.04656 0.384999L3.67156 3.234L0.580556 3.685C0.455889 3.69967 0.342222 3.74917 0.239556 3.8335C0.136889 3.91783 0.0672222 4.02233 0.0305556 4.147C-0.00611111 4.27167 -0.00977778 4.39817 0.0195556 4.5265C0.0488889 4.65483 0.111222 4.763 0.206556 4.851L2.43956 7.073L1.91156 10.197C1.88956 10.329 1.90422 10.4537 1.95556 10.571C2.00689 10.6883 2.08389 10.7873 2.18656 10.868C2.28922 10.9487 2.40656 10.9927 2.53856 11C2.67056 11.0073 2.79522 10.9817 2.91256 10.923L5.67356 9.449L8.43456 10.923C8.55189 10.9817 8.67472 11.0073 8.80306 11C8.93139 10.9927 9.05056 10.9505 9.16056 10.8735C9.27056 10.7965 9.34939 10.6975 9.39706 10.5765C9.44472 10.4555 9.45756 10.329 9.43556 10.197L8.89656 7.073L11.1406 4.851C11.2359 4.763 11.2982 4.65483 11.3276 4.5265C11.3569 4.39817 11.3496 4.27167 11.3056 4.147C11.2616 4.02233 11.1919 3.91783 11.0966 3.8335C11.0012 3.74917 10.8876 3.69967 10.7556 3.685L7.67556 3.234L6.28956 0.384999Z" fill="#FACC15"/>
</svg>
