<svg width="15" height="13" viewBox="0 0 15 13" fill="none" xmlns="http://www.w3.org/2000/svg">
<path d="M13.455 3.02999C13.465 3.11999 13.47 3.25499 13.47 3.43499C13.47 4.47499 13.28 5.49999 12.9 6.50999C12.51 7.56999 11.95 8.50999 11.22 9.32999C10.44 10.21 9.525 10.895 8.475 11.385C7.335 11.915 6.085 12.18 4.725 12.18C3.865 12.18 3.035 12.0625 2.235 11.8275C1.435 11.5925 0.69 11.25 0 10.8C0.26 10.83 0.51 10.845 0.75 10.845C1.45 10.845 2.1275 10.73 2.7825 10.5C3.4375 10.27 4.03 9.94499 4.56 9.52499C3.89 9.51499 3.2925 9.30999 2.7675 8.90999C2.2425 8.50999 1.88 8.00499 1.68 7.39499C1.88 7.42499 2.075 7.43999 2.265 7.43999C2.565 7.43999 2.835 7.40499 3.075 7.33499C2.605 7.24499 2.185 7.05499 1.815 6.76499C1.445 6.47499 1.1525 6.11749 0.9375 5.69249C0.7225 5.26749 0.615 4.80999 0.615 4.31999V4.27499C1.025 4.51499 1.485 4.64499 1.995 4.66499C1.575 4.39499 1.2425 4.03249 0.9975 3.57749C0.7525 3.12249 0.63 2.63499 0.63 2.11499C0.63 1.55499 0.77 1.03499 1.05 0.554993C1.82 1.50499 2.745 2.25999 3.825 2.81999C4.935 3.38999 6.12 3.70999 7.38 3.77999C7.33 3.52999 7.305 3.29499 7.305 3.07499C7.305 2.51499 7.4425 1.99999 7.7175 1.52999C7.9925 1.05999 8.365 0.687493 8.835 0.412493C9.305 0.137493 9.82 -6.67572e-06 10.38 -6.67572e-06C10.82 -6.67572e-06 11.235 0.0874931 11.625 0.262493C12.015 0.437493 12.35 0.674993 12.63 0.974993C13.34 0.834993 13.99 0.584993 14.58 0.224993C14.47 0.584993 14.2975 0.909993 14.0625 1.19999C13.8275 1.48999 13.55 1.72999 13.23 1.91999C13.8 1.85999 14.39 1.69999 15 1.43999C14.58 2.05999 14.065 2.58999 13.455 3.02999Z" fill="#1DA1F2"/>
</svg>
