<svg width="18" height="19" viewBox="0 0 18 19" fill="none" xmlns="http://www.w3.org/2000/svg">
<path d="M17.226 11.165C17.0353 11.165 16.8667 11.231 16.72 11.363C16.5733 11.495 16.5 11.671 16.5 11.891V15.565C16.5 15.873 16.3863 16.1333 16.159 16.346C15.9317 16.5587 15.6787 16.665 15.4 16.665H2.552C2.244 16.665 1.98367 16.5513 1.771 16.324C1.55833 16.0967 1.452 15.8437 1.452 15.565V11.891C1.452 11.7003 1.386 11.5317 1.254 11.385C1.122 11.2383 0.946 11.165 0.726 11.165C0.506 11.165 0.33 11.2237 0.198 11.341C0.066 11.4583 0 11.6123 0 11.803V15.477C0 15.9317 0.113667 16.3533 0.341 16.742C0.568333 17.1307 0.876333 17.4423 1.265 17.677C1.65367 17.9117 2.08267 18.029 2.552 18.029H15.4C15.8547 18.029 16.2763 17.9153 16.665 17.688C17.0537 17.4607 17.3653 17.1527 17.6 16.764C17.8347 16.3753 17.952 15.9463 17.952 15.477V11.803C17.952 11.627 17.8787 11.4767 17.732 11.352C17.5853 11.2273 17.4167 11.165 17.226 11.165ZM4.862 5.84099L8.25 2.45299V11.803C8.25 11.9937 8.316 12.1623 8.448 12.309C8.58 12.4557 8.75967 12.529 8.987 12.529C9.21433 12.529 9.39033 12.4667 9.515 12.342C9.63967 12.2173 9.702 12.0377 9.702 11.803V2.45299L13.112 5.84099C13.2293 5.95833 13.376 6.01699 13.552 6.01699C13.64 6.01699 13.728 5.99866 13.816 5.96199C13.904 5.92532 13.97 5.88499 14.014 5.84099C14.1607 5.70899 14.234 5.54399 14.234 5.34599C14.234 5.14799 14.1607 4.97566 14.014 4.82899L9.438 0.252993C9.40867 0.223659 9.372 0.194325 9.328 0.164991C9.284 0.135658 9.262 0.106325 9.262 0.076992C9.07133 -0.0256746 8.888 -0.0256746 8.712 0.076992C8.65333 0.076992 8.60567 0.0953257 8.569 0.131992C8.53233 0.168659 8.514 0.208993 8.514 0.252993L3.938 4.82899C3.79133 4.97566 3.718 5.14799 3.718 5.34599C3.718 5.54399 3.79133 5.70899 3.938 5.84099C4.08467 5.97299 4.23867 6.04266 4.4 6.04999C4.56133 6.05732 4.71533 5.98766 4.862 5.84099Z" fill="#030712"/>
</svg>
