<svg width="36" height="12" viewBox="0 0 36 12" fill="none" xmlns="http://www.w3.org/2000/svg">
<mask id="mask0_1_55" style="mask-type:luminance" maskUnits="userSpaceOnUse" x="0" y="0" width="36" height="12">
<path d="M36 0H0V12H36V0Z" fill="white"/>
</mask>
<g mask="url(#mask0_1_55)">
<path d="M31.6 4.29998L32.2 7.49998H29.8L31 4.39998L31.2 3.79998L31.3 3.29998C31.3 3.39998 31.6 4.29998 31.6 4.29998ZM8.89999 11.4L13.3 0.499981H10.3L7.59999 7.99998L7.29999 6.39998L6.29999 1.39998C6.19999 0.799981 5.69999 0.399981 4.89999 0.399981H0.399988L0.299988 0.599981C1.49999 0.799981 2.39999 1.19998 3.29999 1.79998L5.89999 11.5H8.99999L8.89999 11.4ZM15.6 11.4L17.4 0.499981H14.6L12.8 11.6H15.6V11.4ZM25.7 7.89998C25.7 6.69998 24.9 5.69998 23.3 4.79998C22.1 4.29998 21.5 3.89998 21.5 3.49998C21.5 2.89998 22.1 2.59998 23.3 2.59998C24 2.59998 24.7 2.59998 25.3 3.09998H25.7L26 0.599981C25.1 0.199976 24.3 0.0999756 23.4 0.0999756C22.5 0.0999756 21.7 0.299976 21 0.599981C20.3 0.899981 19.7 1.29998 19.2 1.89998C18.8 2.49998 18.6 3.09998 18.6 3.79998C18.6 4.99998 19.4 5.99998 21.2 6.89998C22.1 7.39998 22.6 7.79997 22.6 8.19997C22.6 8.89997 22 9.39998 20.9 9.39998C20 9.39998 19 9.19998 18.2 8.79998L17.8 8.59998L17.3 11C18.3 11.4 19.4 11.7 20.5 11.7C21.8 11.8 23 11.4 24 10.8C25.2 9.99998 25.7 8.99998 25.7 7.89998ZM35.7 11.4L33.4 0.499981H31.2C30.5 0.499981 30 0.699981 29.8 1.39998L25.5 11.6H28.5L29 9.99998H32.8L33.2 11.7H35.8V11.4H35.7Z" fill="url(#paint0_linear_1_55)"/>
</g>
<defs>
<linearGradient id="paint0_linear_1_55" x1="1.58189" y1="5.90838" x2="35.2449" y2="5.90838" gradientUnits="userSpaceOnUse">
<stop stop-color="#2C3572"/>
<stop offset="1" stop-color="#3C62AB"/>
</linearGradient>
</defs>
</svg>
