<svg width="15" height="15" viewBox="0 0 15 15" fill="none" xmlns="http://www.w3.org/2000/svg">
<path d="M5.094 5.53131e-05H1.35C0.966 5.53131e-05 0.645 0.120055 0.387 0.360055C0.129 0.600055 0 0.906055 0 1.27806V5.02205C0 5.39405 0.132 5.71206 0.396 5.97606C0.66 6.24006 0.978 6.37206 1.35 6.37206H5.094C5.478 6.37206 5.799 6.24006 6.057 5.97606C6.315 5.71206 6.444 5.39405 6.444 5.02205V1.27806C6.444 0.906055 6.315 0.600055 6.057 0.360055C5.799 0.120055 5.478 5.53131e-05 5.094 5.53131e-05ZM5.238 5.02205C5.238 5.05805 5.223 5.09105 5.193 5.12105C5.163 5.15105 5.13 5.16605 5.094 5.16605H1.35C1.314 5.20205 1.278 5.19905 1.242 5.15705C1.206 5.11505 1.188 5.07005 1.188 5.02205V1.27806C1.188 1.23006 1.206 1.19106 1.242 1.16106C1.278 1.13106 1.314 1.11606 1.35 1.11606H5.094C5.13 1.11606 5.163 1.13106 5.193 1.16106C5.223 1.19106 5.238 1.23006 5.238 1.27806V5.02205ZM13.338 5.53131e-05H9.594C9.222 5.53131e-05 8.904 0.129055 8.64 0.387055C8.376 0.645055 8.244 0.966056 8.244 1.35006V5.09406C8.244 5.46606 8.376 5.78405 8.64 6.04805C8.904 6.31205 9.222 6.44405 9.594 6.44405H13.338C13.722 6.44405 14.043 6.31205 14.301 6.04805C14.559 5.78405 14.688 5.46606 14.688 5.09406V1.27806C14.688 0.906055 14.559 0.600055 14.301 0.360055C14.043 0.120055 13.722 5.53131e-05 13.338 5.53131e-05ZM13.5 5.02205C13.5 5.05805 13.485 5.09105 13.455 5.12105C13.425 5.15105 13.386 5.16605 13.338 5.16605H9.594C9.558 5.16605 9.525 5.15105 9.495 5.12105C9.465 5.09105 9.45 5.05805 9.45 5.02205V1.27806C9.45 1.23006 9.465 1.19106 9.495 1.16106C9.525 1.13106 9.558 1.11606 9.594 1.11606H13.338C13.386 1.11606 13.425 1.13106 13.455 1.16106C13.485 1.19106 13.5 1.23006 13.5 1.27806V5.02205ZM13.338 8.24405H9.594C9.222 8.24405 8.904 8.37305 8.64 8.63105C8.376 8.88905 8.244 9.21005 8.244 9.59405V13.3381C8.244 13.7221 8.376 14.0461 8.64 14.3101C8.904 14.5741 9.222 14.7061 9.594 14.7061H13.338C13.71 14.7061 14.028 14.5741 14.292 14.3101C14.556 14.0461 14.688 13.7221 14.688 13.3381V9.59405C14.688 9.18605 14.559 8.85905 14.301 8.61305C14.043 8.36705 13.722 8.24405 13.338 8.24405ZM13.5 13.2661C13.5 13.3021 13.485 13.3381 13.455 13.3741C13.425 13.4101 13.386 13.4281 13.338 13.4281H9.594C9.558 13.4281 9.525 13.4101 9.495 13.3741C9.465 13.3381 9.45 13.3021 9.45 13.2661V9.52205C9.45 9.48605 9.465 9.45305 9.495 9.42305C9.525 9.39305 9.558 9.37806 9.594 9.37806H13.338C13.386 9.37806 13.425 9.39305 13.455 9.42305C13.485 9.45305 13.5 9.48605 13.5 9.52205V13.2661ZM5.094 8.24405H1.35C0.978 8.24405 0.66 8.37305 0.396 8.63105C0.132 8.88905 0 9.21005 0 9.59405V13.3381C0 13.7221 0.132 14.0461 0.396 14.3101C0.66 14.5741 0.978 14.7061 1.35 14.7061H5.094C5.466 14.7061 5.784 14.5741 6.048 14.3101C6.312 14.0461 6.444 13.7221 6.444 13.3381V9.59405C6.444 9.18605 6.315 8.85905 6.057 8.61305C5.799 8.36705 5.478 8.24405 5.094 8.24405ZM5.238 13.2661C5.238 13.3021 5.223 13.3381 5.193 13.3741C5.163 13.4101 5.13 13.4281 5.094 13.4281H1.35C1.314 13.4281 1.278 13.4101 1.242 13.3741C1.206 13.3381 1.188 13.3021 1.188 13.2661V9.52205C1.188 9.48605 1.206 9.45305 1.242 9.42305C1.278 9.39305 1.314 9.37806 1.35 9.37806H5.094C5.13 9.37806 5.163 9.39305 5.193 9.42305C5.223 9.45305 5.238 9.48605 5.238 9.52205V13.2661Z" fill="#111827"/>
</svg>
