<svg width="19" height="19" viewBox="0 0 19 19" fill="none" xmlns="http://www.w3.org/2000/svg">
<path d="M18.009 12.742C17.8097 12.742 17.6333 12.811 17.48 12.949C17.3267 13.087 17.25 13.271 17.25 13.501V16.376L12.742 11.868C12.5887 11.73 12.4123 11.661 12.213 11.661C12.0137 11.661 11.8373 11.73 11.684 11.868C11.5307 12.006 11.4578 12.1823 11.4655 12.397C11.4732 12.6117 11.546 12.788 11.684 12.926L16.192 17.434H13.317C13.1177 17.434 12.9413 17.5068 12.788 17.6525C12.6347 17.7982 12.558 17.9822 12.558 18.2045C12.558 18.4268 12.627 18.6108 12.765 18.7565C12.903 18.9022 13.087 18.975 13.317 18.975H18.009C18.1317 18.975 18.2313 18.9443 18.308 18.883C18.354 18.883 18.3962 18.86 18.4345 18.814C18.4728 18.768 18.492 18.722 18.492 18.676C18.492 18.63 18.5112 18.5878 18.5495 18.5495C18.5878 18.5112 18.63 18.492 18.676 18.492C18.676 18.4613 18.6913 18.4153 18.722 18.354C18.7527 18.2927 18.768 18.239 18.768 18.193V13.593C18.768 13.317 18.6952 13.1062 18.5495 12.9605C18.4038 12.8148 18.2237 12.742 18.009 12.742ZM6.026 11.776L1.518 16.284V13.409C1.518 13.2097 1.449 13.0333 1.311 12.88C1.173 12.7267 0.985167 12.65 0.7475 12.65C0.509833 12.65 0.325833 12.7152 0.1955 12.8455C0.0651667 12.9758 0 13.1637 0 13.409V18.009C0 18.1317 0.0306667 18.2313 0.092 18.308C0.092 18.354 0.111167 18.3962 0.1495 18.4345C0.187833 18.4728 0.23 18.492 0.276 18.492C0.322 18.492 0.368 18.5112 0.414 18.5495C0.46 18.5878 0.483 18.63 0.483 18.676C0.513667 18.676 0.559667 18.6913 0.621 18.722C0.682333 18.7527 0.728333 18.768 0.759 18.768H5.359C5.55833 18.768 5.73467 18.699 5.888 18.561C6.04133 18.423 6.118 18.2352 6.118 17.9975C6.118 17.7598 6.05283 17.5758 5.9225 17.4455C5.79217 17.3152 5.60433 17.25 5.359 17.25H2.484L6.992 12.742C7.13 12.5887 7.199 12.4085 7.199 12.2015C7.199 11.9945 7.13 11.822 6.992 11.684C6.854 11.546 6.69683 11.4923 6.5205 11.523C6.34417 11.5537 6.17933 11.638 6.026 11.776ZM18.676 0.460006C18.676 0.414006 18.6568 0.371839 18.6185 0.333506C18.5802 0.295173 18.538 0.276006 18.492 0.276006C18.446 0.276006 18.4038 0.256839 18.3655 0.218506C18.3272 0.180173 18.308 0.138006 18.308 0.0920061C18.262 0.0920061 18.2083 0.0766727 18.147 0.0460061C18.0857 0.0153394 18.0397 6.06664e-06 18.009 6.06664e-06H13.409C13.2097 6.06664e-06 13.0333 0.0690061 12.88 0.207006C12.7267 0.345006 12.65 0.532839 12.65 0.770506C12.65 1.00817 12.7152 1.19217 12.8455 1.32251C12.9758 1.45284 13.1637 1.51801 13.409 1.51801H16.284L11.776 6.02601C11.638 6.17934 11.569 6.35567 11.569 6.55501C11.569 6.75434 11.638 6.93067 11.776 7.08401C11.822 7.13001 11.891 7.17217 11.983 7.21051C12.075 7.24884 12.167 7.26801 12.259 7.26801C12.351 7.26801 12.443 7.24884 12.535 7.21051C12.627 7.17217 12.696 7.13001 12.742 7.08401L17.25 2.57601V5.45101C17.25 5.65034 17.319 5.82667 17.457 5.98001C17.595 6.13334 17.7828 6.21001 18.0205 6.21001C18.2582 6.21001 18.4422 6.14484 18.5725 6.01451C18.7028 5.88417 18.768 5.69634 18.768 5.45101V0.759006C18.768 0.728339 18.7527 0.682339 18.722 0.621006C18.6913 0.559673 18.676 0.506006 18.676 0.460006ZM2.484 1.51801H5.359C5.55833 1.51801 5.73467 1.44901 5.888 1.31101C6.04133 1.17301 6.118 0.989006 6.118 0.759006C6.118 0.529006 6.04517 0.360339 5.8995 0.253006C5.75383 0.145673 5.57367 0.0920061 5.359 0.0920061H0.759C0.636333 0.0920061 0.544333 0.122673 0.483 0.184006C0.421667 0.184006 0.371833 0.203173 0.3335 0.241506C0.295167 0.279839 0.276 0.318173 0.276 0.356506C0.276 0.394839 0.245333 0.414006 0.184 0.414006C0.122667 0.414006 0.092 0.433173 0.092 0.471506C0.092 0.509839 0.0766667 0.559673 0.046 0.621006C0.0153333 0.682339 0 0.728339 0 0.759006V5.35901C0 5.55834 0.069 5.73467 0.207 5.88801C0.345 6.04134 0.532833 6.11801 0.7705 6.11801C1.00817 6.11801 1.19217 6.05284 1.3225 5.92251C1.45283 5.79217 1.518 5.60434 1.518 5.35901V2.48401L6.026 6.99201C6.072 7.08401 6.141 7.15301 6.233 7.19901C6.325 7.24501 6.417 7.26801 6.509 7.26801C6.601 7.26801 6.693 7.24884 6.785 7.21051C6.877 7.17217 6.946 7.13001 6.992 7.08401C7.13 6.93067 7.199 6.75434 7.199 6.55501C7.199 6.35567 7.13 6.17934 6.992 6.02601L2.484 1.51801Z" fill="black" fill-opacity="0.7"/>
</svg>
